<?xml version="1.0" encoding="utf-8"?>
<svg width="573" height="85" version="1.0" preserveAspectRatio="xMidYMid meet" xmlns="http://www.w3.org/2000/svg" xmlns:bx="https://boxy-svg.com">
  <defs>
    <linearGradient gradientUnits="userSpaceOnUse" x1="2668.071" y1="2099.535" x2="2668.071" y2="2558.501" id="gradient-0">
      <stop offset="0" style="stop-color: rgba(0, 122, 245, 1)"/>
      <stop offset="1" style="stop-color: rgba(0, 71, 143, 1)"/>
    </linearGradient>
    <linearGradient gradientUnits="userSpaceOnUse" x1="2045.37" y1="2094.844" x2="2045.37" y2="2557.409" id="gradient-1">
      <stop offset="0" style="stop-color: rgba(0, 127, 255, 1)"/>
      <stop offset="1" style="stop-color: rgba(0, 76, 153, 1)"/>
    </linearGradient>
    <linearGradient gradientUnits="userSpaceOnUse" x1="1560.084" y1="2094.906" x2="1560.084" y2="2557.409" id="gradient-2">
      <stop offset="0" style="stop-color: rgba(0, 127, 255, 1)"/>
      <stop offset="1" style="stop-color: rgba(0, 76, 153, 1)"/>
    </linearGradient>
    <linearGradient gradientUnits="userSpaceOnUse" x1="1126.854" y1="2099.534" x2="1126.854" y2="2547.111" id="gradient-4">
      <stop offset="0" style="stop-color: rgba(0, 127, 255, 1)"/>
      <stop offset="1" style="stop-color: rgba(0, 76, 153, 1)"/>
    </linearGradient>
    <linearGradient gradientUnits="userSpaceOnUse" x1="661.046" y1="2094.083" x2="661.046" y2="2698.094" id="gradient-3">
      <stop offset="0" style="stop-color: rgba(0, 127, 255, 1)"/>
      <stop offset="1" style="stop-color: rgba(0, 76, 153, 1)"/>
    </linearGradient>
    <linearGradient gradientUnits="userSpaceOnUse" x1="230.133" y1="2093.902" x2="230.133" y2="2556.033" id="gradient-5">
      <stop offset="0" style="stop-color: rgba(0, 127, 255, 1)"/>
      <stop offset="1" style="stop-color: rgba(0, 76, 153, 1)"/>
    </linearGradient>
    <filter id="drop-shadow-filter-0" x="-500%" y="-500%" width="1000%" height="1000%" bx:preset="drop-shadow 1 10 10 11 0.5 rgba(0,0,0,0.3)">
      <feGaussianBlur in="SourceAlpha" stdDeviation="11"/>
      <feOffset dx="10" dy="10"/>
      <feComponentTransfer result="offsetblur">
        <feFuncA id="spread-ctrl" type="linear" slope="1"/>
      </feComponentTransfer>
      <feFlood flood-color="rgba(0,0,0,0.3)"/>
      <feComposite in2="offsetblur" operator="in"/>
      <feMerge>
        <feMergeNode/>
        <feMergeNode in="SourceGraphic"/>
      </feMerge>
    </filter>
  </defs>
  <g style="" transform="matrix(0.5136, 0, 0, 0.527075, 2.346483, 2.454775)">
    <title>Layer 1</title>
    <g transform="translate(0 275) scale(0.1 -0.1)" fill="#000000" id="svg_1" stroke="null">
      <path d="m643.72872,2695.31734c-26.53536,-4.90581 -31.95073,-19.62323 -34.65842,-93.75544l-2.70769,-68.68131l-30.86766,-1.63527c-26.53536,-1.63527 -32.49227,-3.81563 -44.94764,-17.98796c-14.62152,-17.98796 -16.78767,-29.97994 -7.58153,-50.14826c8.12307,-17.98796 23.28613,-25.07413 56.31994,-26.7094l27.07689,-1.63527l3.24923,-122.6452c2.70769,-117.1943 6.49845,-147.17424 22.20305,-166.25238c2.16615,-2.72545 9.20614,-11.44689 15.16306,-19.07814c9.20614,-11.44689 11.3723,-12.53706 16.24614,-5.4509c3.24923,4.90581 5.41538,5.4509 5.41538,1.63527c0,-10.35671 16.24614,-23.43886 28.15997,-23.43886c9.20614,0 10.28922,2.18036 7.58153,13.62724c-4.87384,18.53305 4.87384,17.44287 24.91074,-2.72545c15.16306,-15.26251 18.41229,-16.35269 59.02763,-16.35269c62.81839,0 85.56298,15.8076 86.10452,58.32461c0,31.61521 -19.49536,47.42281 -52.52917,42.517c-12.45537,-1.63527 -32.49227,-0.54509 -44.4061,2.72545c-18.95383,4.90581 -22.74459,8.72144 -27.61843,27.25449c-3.24923,11.99198 -4.87384,61.59515 -4.3323,115.55903l1.62461,94.30053l58.48609,2.72545c53.61225,2.72545 60.1107,3.81563 69.31685,15.8076c12.99691,16.35269 12.99691,43.06209 -0.54154,60.50497c-9.20614,12.53706 -14.07998,13.62724 -68.77531,16.35269l-58.48609,2.72545l-2.70769,68.13622c-1.62461,37.61119 -4.87384,71.40676 -7.58153,75.76748c-10.83076,17.44287 -55.23686,26.16431 -93.14451,18.53305l-0.00002,0z" id="svg_2" stroke="null"/>
      <path d="m3420.19333,2676.78428c-12.99691,-2.72545 -24.3692,-5.4509 -24.91074,-5.99599c-7.58153,-8.17635 -50.36302,-110.65323 -48.19687,-113.92376c1.62461,-2.72545 12.45537,-9.81162 24.3692,-15.8076c11.3723,-5.99599 21.11998,-11.99198 21.11998,-13.08215c0,-1.09018 -19.49536,-43.06209 -43.32303,-93.21035c-23.82767,-50.14826 -43.32303,-92.12017 -43.32303,-92.66526c0,-1.09018 20.57844,-13.08215 45.48918,-26.7094c51.4461,-28.34467 49.82148,-24.52904 27.61843,-79.58311c-18.95383,-45.78754 -78.52299,-211.49484 -78.52299,-218.03591c0,-4.36072 38.44919,-27.25449 45.48918,-27.25449c1.62461,0 3.24923,9.26653 4.3323,20.71341l1.62461,20.16832l10.83076,-17.44287c5.41538,-9.81162 11.91383,-17.98796 13.53845,-17.98796c1.62461,0 25.99382,56.68934 53.61225,125.91574l50.90456,125.37065l-34.65842,35.97593c-45.48918,47.42281 -48.19687,50.69335 -48.19687,56.14425c0,2.18036 11.91383,29.97994 26.53536,61.59515c17.87075,38.70137 24.91074,58.32461 20.57844,60.50497c-3.79077,1.63527 -3.24923,2.72545 1.62461,3.27054c7.03999,0.54509 54.15379,93.21035 54.15379,106.8376c0,3.27054 -8.66461,13.62724 -18.41229,23.43886l-18.95383,18.53305l12.99691,26.16431c9.74768,18.53305 11.3723,26.7094 6.49845,28.34467c-3.79077,1.63527 -2.70769,3.27054 3.24923,3.27054c4.87384,0.54509 9.20614,3.27054 9.20614,5.99599c0,6.54108 -41.69842,5.99599 -75.27376,-0.54509l0,-0.00004z" id="svg_3" stroke="null"/>
      <path d="m3527.95936,2674.05883c0,-3.81563 10.83076,-15.8076 24.3692,-26.7094l23.82767,-20.16832l-15.7046,-32.1603c-9.20614,-17.44287 -16.24614,-38.15628 -16.24614,-45.78754c0,-8.17635 -2.16615,-13.08215 -4.3323,-11.44689c-4.3323,2.18036 -77.43991,-145.53897 -76.89838,-155.35059c0,-2.18036 18.95383,-19.07814 42.23995,-37.61119c22.74459,-19.07814 43.32303,-35.97593 46.03072,-38.15628c2.16615,-1.63527 -23.82767,-77.94784 -57.94455,-169.52292c-43.32303,-115.55903 -60.1107,-166.79747 -55.7784,-169.52292c8.12307,-4.90581 77.43991,-5.4509 100.72604,-1.09018c14.62152,3.27054 17.32921,5.99599 14.62152,15.26251c-1.08308,6.54108 -4.3323,27.25449 -6.49845,46.87772l-3.24923,35.43084l18.41229,-17.98796l18.95383,-17.98796l42.23995,97.02598c23.28613,53.4188 45.48918,104.65724 49.27995,113.92376l7.03999,16.89778l-53.07071,36.52102l-53.61225,37.06611l54.15379,105.20233l53.61225,105.74742l-24.91074,16.89778l-24.91074,17.44287l16.24614,29.43485c16.24614,27.79958 16.24614,29.43485 6.49845,34.88575c-5.95692,2.72545 -15.7046,5.4509 -21.66151,5.4509c-5.95692,0 -12.45537,2.72545 -14.62152,5.99599c-9.20614,15.26251 -88.81221,36.52102 -88.81221,23.43886l-0.00001,-0.00002z" id="svg_4" stroke="null"/>
      <path d="m4543.88439,2666.97267c-20.0369,-2.72545 -30.32612,-8.17635 -41.69842,-21.2585l-15.7046,-17.44287l0,-287.8074c0,-275.81543 0.54154,-287.8074 10.83076,-304.70519c5.95692,-10.35671 16.78767,-19.07814 25.45228,-21.2585c8.12307,-1.63527 18.41229,-4.36072 22.74459,-5.4509c4.3323,-1.63527 9.74768,0.54509 11.91383,3.81563c2.70769,4.90581 8.12307,4.90581 21.66151,0c29.24304,-10.35671 101.80912,-13.08215 156.50444,-6.54108c72.02454,9.26653 98.55989,16.35269 101.80912,28.88976c2.70769,10.35671 11.91383,13.62724 11.91383,4.36072c0,-11.44689 10.28922,-4.36072 15.7046,10.9018c5.95692,18.53305 11.91383,22.34868 7.58153,5.4509c-3.79077,-13.62724 7.58153,-14.71742 11.3723,-1.09018c2.16615,5.99599 9.74768,16.35269 17.87075,23.43886l14.07998,13.08215l-6.49845,-12.53706c-3.79077,-7.08617 -5.41538,-14.17233 -4.3323,-15.8076c3.24923,-3.27054 17.32921,21.2585 15.7046,26.7094c-0.54154,2.18036 2.70769,2.72545 7.58153,0.54509c10.83076,-3.81563 43.32303,31.07012 63.35993,67.59113c25.45228,47.9679 37.36611,104.65724 37.90765,184.24035c0.54154,80.1282 -7.03999,117.73939 -34.11689,172.24837c-33.03381,65.41077 -91.5199,113.37867 -170.04289,139.54298c-40.61534,13.08215 -51.98763,14.71742 -149.46445,15.8076c-57.94455,0.54509 -117.51372,-0.54509 -132.13524,-2.72545l0.00001,-0.00001zm199.82747,-115.55903c75.8153,-14.17233 117.51372,-57.77952 132.13524,-138.4528c16.24614,-87.75945 -2.16615,-194.05196 -41.15688,-240.38459c-5.41538,-6.54108 -28.70151,-24.52904 -51.98763,-40.88173c-41.69842,-28.88976 -43.86457,-29.43485 -88.81221,-32.1603c-24.91074,-1.63527 -49.82148,-1.09018 -54.69532,0.54509c-5.41538,2.18036 -22.20305,15.8076 -38.44919,31.07012l-29.24304,27.79958l3.79077,45.24245c2.16615,25.07413 5.95692,47.42281 8.66461,50.14826c10.28922,10.35671 16.24614,-4.90581 16.24614,-41.42682c0,-31.07012 1.62461,-37.61119 7.58153,-35.43084c4.87384,2.18036 9.20614,-1.09018 11.3723,-7.63126c3.79077,-10.9018 3.79077,-10.9018 11.91383,0.54509c7.58153,10.9018 7.58153,12.53706 0,16.89778c-5.95692,3.81563 -7.58153,9.81162 -5.41538,23.43886c2.70769,18.53305 -7.03999,44.69736 -22.20305,57.23443c-4.3323,3.81563 -20.0369,8.17635 -34.11689,9.26653c-42.23995,4.36072 -67.69223,39.24646 -36.82457,51.23844c7.58153,2.72545 13.53845,9.26653 13.53845,14.71742c0,8.17635 -1.08308,8.72144 -5.41538,1.63527c-9.74768,-14.17233 -16.24614,4.90581 -16.24614,46.33263c0,56.68934 16.24614,88.84963 60.1107,117.1943c18.41229,11.99198 36.82457,21.80359 40.61534,21.80359c3.79077,0 9.74768,4.90581 12.99691,10.35671c8.66461,16.89778 51.4461,21.2585 105.59988,10.9018l-0.00002,-0.00001z" id="svg_5" stroke="null"/>
      <path d="m3875.62667,2657.70614c-6.49845,-4.36072 -11.91383,-13.62724 -11.91383,-20.16832c0,-6.54108 33.03381,-74.6773 73.10761,-150.98987c40.0738,-76.31257 73.10761,-141.17825 73.10761,-143.9037c0,-4.90581 -34.65842,-71.95185 -108.84911,-210.94975c-23.82767,-43.60718 -42.78149,-83.94383 -42.78149,-90.4849c0,-21.2585 16.24614,-28.88976 62.27685,-28.88976c32.49227,0 44.94764,2.18036 53.07071,9.26653c5.95692,5.4509 9.20614,6.54108 7.03999,3.27054c-7.03999,-12.53706 10.28922,-7.63126 28.15997,8.17635c12.99691,10.9018 27.61843,39.24646 60.1107,115.55903c23.28613,55.59916 44.94764,100.29652 47.11379,100.29652c2.70769,-0.54509 22.20305,-41.42682 42.78149,-91.57508c27.07689,-64.86568 40.0738,-89.39472 45.48918,-87.75945c5.95692,2.18036 5.95692,1.09018 1.08308,-4.90581c-4.87384,-5.99599 -4.87384,-8.72144 0,-11.99198c3.79077,-2.18036 10.28922,1.63527 16.24614,9.26653c12.45537,16.35269 14.07998,2.18036 1.62461,-15.8076c-10.28922,-15.26251 -2.70769,-15.26251 16.24614,-0.54509c15.16306,11.99198 17.32921,10.35671 8.66461,-6.54108c-7.58153,-14.17233 0,-13.08215 23.82767,3.27054c21.11998,14.71742 23.82767,10.9018 11.3723,-13.62724c-6.49845,-13.08215 -7.03999,-16.35269 -1.08308,-16.35269c3.79077,0 9.74768,2.72545 13.53845,6.54108c4.87384,4.90581 6.49845,4.90581 6.49845,0c0,-8.17635 25.45228,-8.72144 30.32612,0c2.16615,3.27054 5.41538,13.62724 7.58153,22.89377l3.79077,16.89778l4.3323,-22.89377c3.24923,-20.16832 5.41538,-22.34868 14.07998,-17.98796c5.41538,3.27054 11.3723,10.35671 12.99691,16.35269c3.24923,10.9018 -2.16615,22.34868 -110.47372,228.39262c-21.11998,39.79155 -38.44919,76.31257 -38.44919,81.21838c0,4.36072 33.03381,69.77149 73.10761,145.53897c40.0738,75.76748 73.10761,141.72334 73.10761,146.62915c0,4.90581 -4.87384,13.62724 -10.83076,19.62323c-8.66461,8.72144 -17.87075,10.9018 -49.82148,10.9018c-49.82148,0 -74.19069,-7.08617 -92.06144,-25.61922c-8.12307,-8.72144 -33.03381,-58.8697 -56.31994,-112.28849c-23.28613,-52.87371 -43.86457,-94.84562 -46.03072,-92.66526c-2.16615,2.72545 -22.74459,47.42281 -45.48918,99.75143c-22.74459,52.32862 -44.4061,98.66125 -47.65533,103.02197c-21.66151,26.16431 -120.76294,38.70137 -148.92291,19.07814l0,-0.00003z" id="svg_6" stroke="null"/>
      <path d="m5334.52966,2648.9847c-2.70769,-11.44689 -2.70769,-29.43485 -1.08308,-39.79155c2.16615,-10.35671 2.70769,-19.07814 1.08308,-19.07814c-5.95692,0 -15.16306,23.98395 -19.49536,48.51299l-4.3323,25.07413l-0.54154,-29.97994c0,-17.44287 3.24923,-36.52102 7.58153,-45.78754c4.87384,-8.72144 7.03999,-16.89778 5.41538,-18.53305c-6.49845,-6.54108 -29.78458,25.07413 -40.0738,53.4188c-10.28922,27.79958 -10.83076,28.34467 -7.58153,8.17635c1.62461,-11.99198 5.41538,-26.16431 8.12307,-31.61521c8.12307,-15.8076 1.62461,-16.35269 -15.7046,-1.63527l-16.24614,14.17233l-8.66461,-23.43886c-19.49536,-51.78353 -166.25212,-489.49062 -166.25212,-496.0317c-0.54154,-3.27054 -3.79077,-15.8076 -8.12307,-27.25449c-7.03999,-20.71341 -7.03999,-20.71341 3.24923,-11.44689c11.91383,10.9018 13.53845,3.27054 2.16615,-11.99198c-9.20614,-11.99198 -10.28922,-18.53305 -2.70769,-18.53305c8.66461,0 32.49227,39.79155 32.49227,54.50898c0.54154,12.53706 1.08308,12.53706 5.95692,3.81563c8.12307,-13.62724 2.16615,-41.42682 -12.45537,-56.68934c-6.49845,-7.08617 -9.20614,-12.53706 -5.95692,-12.53706c8.12307,0 33.57535,31.07012 43.32303,51.78353l7.58153,16.35269l-2.70769,-17.98796c-1.62461,-10.35671 -8.66461,-26.16431 -15.16306,-35.43084c-6.49845,-9.26653 -8.66461,-14.71742 -3.79077,-11.99198c23.28613,14.17233 44.4061,33.79557 51.98763,48.51299c8.12307,16.35269 8.66461,16.35269 12.99691,4.36072c5.41538,-14.71742 1.62461,-26.7094 -13.53845,-44.15227l-11.3723,-12.53706l13.53845,3.81563c16.78767,4.90581 32.49227,18.53305 32.49227,27.79958c0,3.81563 2.70769,7.63126 6.49845,8.72144c3.79077,1.63527 12.99691,24.52904 20.57844,51.23844l13.53845,48.51299l102.35066,0l102.89219,0l4.3323,-19.07814c2.70769,-10.35671 10.28922,-35.97593 16.24614,-57.23443l11.3723,-38.15628l6.49845,21.80359l7.03999,21.80359l0.54154,-17.98796c0.54154,-22.34868 8.12307,-37.06611 22.74459,-45.24245c11.3723,-5.99599 11.3723,-5.4509 -0.54154,9.81162c-15.16306,21.2585 -15.16306,45.24245 -0.54154,66.50095c6.49845,9.26653 13.53845,16.89778 15.7046,17.44287c2.16615,0 12.45537,1.09018 23.82767,1.63527c18.41229,0.54509 18.95383,0 11.91383,-9.81162c-4.3323,-5.99599 -7.58153,-16.35269 -7.58153,-22.34868c0.54154,-7.63126 2.70769,-5.4509 8.66461,8.17635c5.41538,11.99198 9.74768,16.35269 11.91383,12.53706c2.70769,-4.90581 6.49845,-2.72545 11.3723,5.4509c7.58153,11.44689 7.03999,11.44689 -2.70769,3.81563c-9.20614,-7.63126 -9.74768,-7.63126 -3.24923,1.09018c4.3323,4.90581 10.28922,8.17635 14.62152,6.54108c3.79077,-1.63527 8.66461,-0.54509 10.28922,2.18036c2.70769,4.36072 -96.93528,306.88555 -144.04907,438.79727c-10.83076,29.97994 -17.32921,37.61119 -21.66151,24.52904c-3.24923,-9.81162 -15.16306,0.54509 -15.7046,13.62724c0,11.44689 -0.54154,11.44689 -4.3323,1.09018l-4.3323,-10.9018l-2.70769,10.9018c-2.70769,9.26653 -3.24923,8.72144 -4.3323,-2.72545c-1.08308,-11.44689 -2.16615,-10.35671 -8.12307,8.17635c-4.3323,11.99198 -7.58153,17.98796 -8.12307,13.62724c-0.54154,-4.36072 -3.24923,-2.18036 -5.41538,5.4509c-4.3323,12.53706 -4.3323,12.53706 -4.87384,-4.36072c-0.54154,-9.81162 2.16615,-23.43886 5.41538,-29.97994c4.87384,-9.26653 4.87384,-10.35671 -0.54154,-5.99599c-3.24923,3.27054 -9.74768,15.8076 -14.07998,27.25449l-8.12307,21.2585l2.70769,-24.52904l2.16615,-24.52904l-7.03999,21.80359c-7.58153,23.43886 -10.28922,18.53305 -8.66461,-16.35269l0.54154,-21.80359l-8.66461,15.8076c-4.87384,8.17635 -10.28922,31.61521 -12.45537,51.78353c-3.79077,34.88575 -4.3323,35.43084 -8.12307,15.8076l0.00001,0zm50.90456,-243.11004c17.87075,-65.95586 32.49227,-124.28047 32.49227,-128.64119c0,-7.63126 -9.74768,-8.72144 -67.69223,-8.72144c-61.73532,0 -67.69223,1.09018 -67.69223,9.81162c0,9.26653 47.65533,195.14214 60.1107,234.38861c3.24923,9.81162 7.03999,17.44287 8.12307,15.8076c1.08308,-1.09018 16.78767,-56.14425 34.65842,-122.6452z" id="svg_7" stroke="null"/>
      <path d="m3317.84267,2641.89854c-12.99691,-7.63126 -26.53536,-11.99198 -29.78458,-9.81162c-2.70769,1.63527 -3.79077,1.09018 -2.16615,-2.18036c2.16615,-3.27054 -9.74768,-14.71742 -26.53536,-26.16431c-26.53536,-18.53305 -83.39683,-82.30856 -83.39683,-93.21035c0,-2.72545 7.58153,-9.26653 16.24614,-14.17233c9.74768,-5.4509 16.24614,-13.62724 16.24614,-20.71341c0,-5.99599 2.70769,-10.35671 6.49845,-9.26653c10.28922,2.18036 18.41229,-26.7094 9.74768,-37.06611c-6.49845,-7.63126 -8.12307,-7.63126 -17.87075,1.09018c-8.12307,7.63126 -11.3723,8.17635 -12.99691,2.72545c-2.16615,-5.4509 -4.3323,-5.4509 -10.28922,-0.54509c-5.95692,4.90581 -10.83076,2.18036 -24.3692,-11.44689c-15.7046,-15.26251 -16.78767,-19.07814 -13.53845,-41.42682c2.70769,-19.62323 1.62461,-23.98395 -5.95692,-23.98395c-7.03999,0 -8.12307,4.36072 -5.41538,24.52904c4.87384,35.43084 -4.87384,29.97994 -12.99691,-6.54108c-4.3323,-21.2585 -4.3323,-35.97593 -1.08308,-45.78754c3.24923,-7.63126 4.3323,-27.79958 2.70769,-44.69736l-2.16615,-31.07012l26.53536,0c53.61225,0 91.5199,-45.78754 86.64606,-104.65724c-1.62461,-16.89778 -7.03999,-38.15628 -12.45537,-47.42281c-9.74768,-16.89778 -5.95692,-31.61521 6.49845,-23.43886c5.95692,3.81563 77.98145,144.44879 77.98145,152.08005c0,6.54108 -51.98763,34.88575 -56.31994,30.52503c-1.62461,-1.63527 -3.24923,-0.54509 -3.24923,3.27054c0,4.36072 -3.24923,5.99599 -8.66461,3.81563c-4.3323,-1.63527 -6.49845,-1.09018 -4.87384,1.63527c1.62461,3.27054 -4.3323,9.81162 -13.53845,15.26251c-9.74768,5.4509 -15.16306,12.53706 -13.53845,16.89778c2.70769,7.08617 81.77222,142.26843 98.55989,168.43274c7.03999,10.9018 5.95692,12.53706 -19.49536,26.16431l-27.07689,14.71742l48.73841,73.04203c26.53536,40.33664 45.48918,73.04203 41.69842,73.04203c-3.79077,0 -17.87075,-5.99599 -30.32612,-13.62724l0.00001,0.00001z" id="svg_8" stroke="null"/>
      <path d="m3737.53451,2550.32345c-11.91383,-18.53305 -91.5199,-179.33454 -89.35375,-180.96981c1.08308,-0.54509 26.53536,-14.17233 57.40301,-29.43485c30.32612,-15.26251 55.23686,-28.88976 55.23686,-30.52503c0,-3.27054 -16.78767,-46.87772 -73.64915,-190.23633c-24.91074,-63.23041 -44.4061,-115.55903 -42.78149,-116.64921c5.95692,-5.99599 57.94455,27.25449 91.5199,58.8697c57.94455,55.05407 62.27685,59.95988 66.06762,80.67329c2.70769,14.71742 1.62461,20.71341 -5.41538,25.61922c-7.58153,5.99599 -8.12307,7.63126 -0.54154,13.62724c7.03999,5.99599 7.58153,5.4509 5.41538,-1.09018c-1.62461,-4.36072 0,-10.9018 4.3323,-14.17233c5.41538,-4.90581 9.20614,-2.72545 16.24614,8.72144c12.99691,22.89377 30.86766,92.66526 30.86766,123.19029c0,22.89377 -1.08308,25.61922 -8.12307,19.62323c-4.3323,-3.81563 -8.12307,-10.9018 -8.12307,-16.35269c0,-4.90581 -3.79077,-9.26653 -8.12307,-9.26653c-10.28922,0 -10.28922,3.27054 1.08308,15.8076c8.66461,9.81162 8.66461,11.44689 -0.54154,25.07413c-19.49536,31.07012 -27.07689,53.96389 -27.61843,88.30454c-0.54154,31.07012 -2.16615,35.97593 -12.45537,40.88173c-15.7046,7.08617 -15.16306,9.26653 4.87384,20.16832l16.24614,9.81162l-11.91383,17.44287c-14.62152,21.80359 -43.32303,53.4188 -48.73841,53.4188c-2.16615,0 -7.58153,-5.4509 -11.91383,-12.53706z" id="svg_9" stroke="null"/>
      <path d="m203.99998,2544.87256c-12.45537,-7.08617 -21.11998,-14.17233 -18.95383,-16.35269c1.62461,-2.18036 0,-3.81563 -4.3323,-3.81563c-4.3323,0 -13.53845,-1.63527 -21.11998,-3.27054c-10.83076,-2.18036 -11.91383,-1.63527 -5.41538,2.72545c9.74768,7.08617 0.54154,7.63126 -10.83076,0.54509c-8.66461,-5.4509 -3.79077,-8.17635 29.24304,-16.89778c14.62152,-3.81563 13.53845,-4.36072 -7.58153,-2.72545c-13.53845,0.54509 -29.24304,3.27054 -35.19996,4.90581c-5.95692,2.18036 -1.08308,-1.09018 10.83076,-7.08617c22.74459,-11.44689 18.95383,-14.71742 -6.49845,-5.4509c-14.62152,5.4509 -14.62152,4.90581 -4.3323,-3.27054c5.95692,-4.90581 19.49536,-12.53706 29.78458,-17.44287c16.78767,-7.63126 17.32921,-8.72144 7.03999,-10.9018c-6.49845,-1.09018 -23.28613,3.27054 -37.36611,9.26653c-14.07998,6.54108 -27.07689,10.35671 -28.70151,8.17635c-4.87384,-4.90581 16.24614,-18.53305 33.57535,-22.34868c25.45228,-5.4509 8.12307,-11.99198 -17.87075,-7.08617c-13.53845,2.18036 -25.45228,3.27054 -26.53536,2.18036c-4.3323,-4.36072 37.36611,-18.53305 54.15379,-18.53305c15.16306,0 16.24614,-1.09018 9.74768,-8.72144c-5.41538,-6.54108 -14.07998,-8.17635 -38.44919,-6.54108c-34.11689,2.72545 -35.7415,-0.54509 -5.41538,-9.81162l20.0369,-5.4509l-20.0369,-7.63126c-11.3723,-4.36072 -20.57844,-9.81162 -20.57844,-11.99198c0,-11.99198 22.74459,-47.9679 38.99073,-61.59515c23.28613,-20.16832 53.61225,-33.25048 105.59988,-46.33263c23.28613,-5.99599 48.73841,-13.62724 57.40301,-16.89778c25.99382,-10.9018 26.53536,-52.32862 1.08308,-63.7755c-19.49536,-9.26653 -74.19069,-8.17635 -127.2614,2.18036c-40.0738,7.63126 -45.48918,7.63126 -57.40301,-0.54509c-17.32921,-11.44689 -18.41229,-50.69335 -2.16615,-74.13221c14.07998,-19.62323 36.82457,-26.16431 106.14142,-30.52503c54.15379,-3.27054 54.69532,-3.27054 59.02763,9.81162l4.3323,13.08215l2.16615,-11.99198c3.24923,-17.98796 10.83076,-15.26251 17.87075,6.54108c3.24923,10.35671 8.66461,20.71341 11.91383,22.34868c3.24923,2.18036 3.24923,-0.54509 -0.54154,-7.63126c-8.66461,-16.35269 -7.58153,-33.79557 2.16615,-33.79557c5.41538,0 8.12307,5.4509 8.12307,16.35269c0,22.34868 25.45228,50.14826 47.11379,51.78353l16.78767,1.09018l-10.28922,-14.71742c-7.03999,-8.72144 -9.20614,-17.98796 -7.03999,-23.98395c3.24923,-8.72144 4.87384,-7.08617 9.74768,7.63126c3.24923,9.81162 11.91383,21.80359 19.49536,26.7094l12.99691,8.72144l-9.20614,-13.62724c-4.87384,-7.08617 -9.20614,-18.53305 -9.20614,-24.52904c0,-8.72144 2.16615,-7.63126 8.12307,5.4509c4.87384,9.26653 13.53845,19.62323 20.57844,23.98395c9.20614,5.99599 10.28922,5.99599 5.41538,0c-11.91383,-11.99198 -7.58153,-17.98796 4.3323,-7.08617c17.32921,15.26251 26.53536,41.97191 26.53536,76.31257c0,84.48892 -40.61534,125.37065 -148.38137,148.80951c-50.36302,10.9018 -65.52608,17.98796 -73.64915,33.25048c-8.12307,15.26251 -6.49845,26.16431 5.41538,38.15628c9.20614,9.26653 17.87075,10.9018 62.27685,10.9018c27.61843,0 63.35993,-2.72545 79.06453,-5.99599c33.03381,-7.08617 50.90456,-1.09018 59.02763,19.62323c11.3723,29.43485 -10.28922,68.68131 -42.23995,75.76748c-8.12307,1.63527 -48.73841,4.36072 -90.43682,5.99599c-71.483,2.72545 -76.89838,2.18036 -99.10143,-9.81162l0,0.00001z" id="svg_10" stroke="null"/>
      <path d="m1584.37998,2542.6922c-7.58153,-18.53305 -27.07689,-34.34066 -46.03072,-37.06611c-5.95692,-0.54509 -16.24614,-3.27054 -22.20305,-5.99599c-9.20614,-3.81563 -8.66461,-1.63527 4.3323,13.62724c18.41229,22.34868 20.57844,43.60718 2.16615,22.34868c-6.49845,-7.63126 -16.24614,-20.16832 -21.11998,-27.25449c-8.66461,-12.53706 -9.20614,-13.08215 -9.20614,-2.18036c-0.54154,5.99599 2.16615,13.62724 5.95692,17.44287c4.3323,4.36072 4.87384,6.54108 0.54154,6.54108c-3.24923,0 -11.3723,-6.54108 -17.87075,-14.71742c-10.83076,-14.71742 -11.3723,-14.71742 -7.58153,-2.18036l3.24923,13.08215l-16.78767,-11.99198c-46.03072,-33.25048 -70.94146,-98.11616 -70.94146,-184.78544c0,-88.30454 18.41229,-141.72334 62.81839,-180.96981c17.87075,-15.8076 21.11998,-16.89778 26.53536,-9.26653c7.58153,10.35671 18.95383,2.18036 18.95383,-13.08215c0,-14.17233 21.66151,-19.62323 30.32612,-7.63126c6.49845,8.72144 7.58153,8.17635 10.28922,-4.36072c2.70769,-9.26653 8.12307,-14.71742 20.0369,-16.89778c21.11998,-4.36072 27.61843,0.54509 24.3692,16.35269c-1.08308,7.08617 0,13.08215 2.70769,13.08215c9.74768,0 47.65533,-22.34868 47.65533,-28.34467c0,-7.08617 87.1876,-2.72545 109.39065,5.99599c17.87075,6.54108 36.82457,35.43084 36.82457,55.59916c0,8.17635 -4.3323,20.16832 -10.28922,27.25449c-9.74768,12.53706 -9.74768,12.53706 -64.44301,4.90581c-93.68605,-12.53706 -147.83984,2.18036 -168.41827,45.78754c-6.49845,12.53706 -11.3723,28.34467 -11.3723,34.88575c0,11.99198 0,11.99198 127.80293,11.99198l127.80293,0l15.7046,15.8076c12.99691,13.62724 15.7046,20.71341 15.7046,42.517c0,35.43084 -12.99691,93.75544 -25.99382,119.91975c-16.78767,32.70539 -52.52917,65.41077 -85.02144,77.40275l-29.24304,10.9018l-17.32921,-16.35269c-9.74768,-8.72144 -20.57844,-14.71742 -24.91074,-13.62724c-4.3323,1.63527 -12.99691,0.54509 -19.49536,-2.18036c-11.3723,-5.4509 -11.3723,-5.4509 0.54154,3.27054c11.91383,8.72144 16.78767,34.88575 6.49845,34.88575c-2.70769,0 -5.41538,-4.36072 -5.41538,-9.81162c0,-9.81162 -15.7046,-27.79958 -32.49227,-36.52102c-4.3323,-2.72545 -2.70769,1.63527 4.3323,9.26653c7.58153,8.72144 11.91383,19.07814 10.83076,27.25449c-1.62461,11.44689 -2.16615,11.44689 -9.20614,-4.90581l-0.00001,0.00002zm63.35993,-88.84963c20.0369,-12.53706 33.57535,-39.24646 33.57535,-68.13622l0,-19.07814l-78.52299,0c-77.98145,0 -78.52299,0 -78.52299,12.53706c0,33.25048 21.11998,69.77149 46.03072,80.1282c20.57844,8.72144 59.02763,5.99599 77.43991,-5.4509z" id="svg_11" stroke="null"/>
      <path d="m1985.118,2548.68818c-36.28304,-5.4509 -48.19687,-9.81162 -60.65224,-21.80359c-26.53536,-25.61922 -25.99382,-64.32059 0.54154,-78.49293c8.12307,-4.36072 22.74459,-3.81563 54.69532,2.72545c56.86148,10.9018 125.09525,10.9018 145.67368,0c10.83076,-5.4509 17.32921,-14.71742 21.11998,-28.88976c9.20614,-32.1603 8.66461,-33.79557 -19.49536,-33.79557c-47.65533,0 -120.2214,-10.9018 -151.08906,-22.34868c-36.82457,-14.17233 -70.94146,-43.60718 -83.93837,-73.04203c-13.53845,-29.97994 -13.53845,-95.9358 0,-125.37065c12.45537,-26.7094 40.0738,-53.96389 66.60916,-65.41077c21.66151,-8.72144 87.72913,-10.35671 82.31375,-1.63527c-4.3323,7.08617 2.70769,31.61521 9.20614,31.61521c2.70769,0 8.12307,-7.63126 10.83076,-16.35269c7.58153,-20.16832 14.62152,-20.71341 18.95383,-1.09018c4.87384,19.62323 16.78767,37.61119 28.15997,41.97191c7.58153,2.72545 7.58153,2.18036 -0.54154,-7.08617c-9.20614,-10.35671 -12.99691,-33.79557 -4.87384,-33.79557c8.12307,0 16.24614,8.72144 17.87075,19.07814c2.70769,12.53706 39.53226,39.24646 61.73532,43.60718c16.24614,3.81563 16.24614,3.81563 -2.70769,-6.54108c-27.07689,-14.17233 -27.07689,-28.88976 0.54154,-52.87371c30.32612,-26.16431 39.53226,-25.07413 13.53845,1.63527c-24.3692,25.07413 -23.82767,37.61119 2.16615,50.69335c25.99382,13.08215 38.99073,11.99198 17.87075,-1.09018c-20.0369,-11.99198 -21.11998,-15.26251 -9.74768,-30.52503c7.58153,-10.35671 7.58153,-10.35671 8.12307,1.09018c0,13.62724 19.49536,32.1603 37.90765,37.06611l13.53845,3.81563l-11.91383,-9.26653c-7.03999,-4.90581 -12.45537,-14.71742 -12.45537,-21.80359c0,-11.44689 2.16615,-10.35671 24.91074,11.99198l24.91074,25.07413l-2.16615,129.18628c-1.62461,128.64119 -1.62461,128.64119 -16.78767,160.2564c-9.20614,18.53305 -18.95383,31.07012 -23.82767,31.07012c-4.87384,0 -7.03999,1.63527 -5.41538,3.81563c2.16615,1.63527 -1.08308,7.08617 -7.58153,11.44689c-9.74768,6.54108 -12.45537,6.54108 -22.20305,-2.72545c-11.3723,-9.81162 -11.3723,-9.81162 -8.66461,4.36072c2.16615,13.08215 0,15.26251 -17.32921,20.71341c-31.95073,9.26653 -42.78149,7.63126 -46.57226,-7.63126c-4.3323,-16.35269 -12.99691,-12.53706 -12.99691,5.99599c0,11.44689 -2.16615,13.08215 -21.11998,13.08215c-15.16306,0 -23.28613,-3.27054 -29.78458,-11.99198l-9.20614,-12.53706l2.70769,12.53706c2.16615,10.9018 0,11.99198 -17.32921,11.44689c-11.3723,-0.54509 -40.61534,-4.36072 -65.52608,-8.17635l-0.00002,0zm163.54443,-270.90962c-2.70769,-45.78754 -25.99382,-74.6773 -69.85838,-84.48892c-43.32303,-9.81162 -72.56607,10.35671 -72.56607,49.05808c0,41.42682 39.53226,64.86568 105.59988,62.68532l37.90765,-1.09018l-1.08308,-26.16431l0,0.00001z" id="svg_12" stroke="null"/>
      <path d="m2615.46807,2539.96675c-5.95692,-9.26653 -14.07998,-18.53305 -17.87075,-19.62323c-5.41538,-1.63527 -4.87384,1.63527 1.62461,11.99198c15.7046,23.98395 -3.24923,17.98796 -40.0738,-13.08215c-18.41229,-15.26251 -33.03381,-25.07413 -33.03381,-21.80359c0,3.81563 -7.58153,4.90581 -20.0369,3.27054l-20.57844,-3.27054l17.32921,5.4509c9.74768,3.27054 18.95383,8.17635 20.57844,10.9018c4.87384,7.63126 -3.79077,6.54108 -25.99382,-2.72545c-10.83076,-4.36072 -23.82767,-8.17635 -29.24304,-7.63126c-7.58153,0 -8.12307,1.09018 -1.62461,3.27054c4.3323,1.63527 12.45537,6.54108 17.32921,11.44689c7.58153,6.54108 8.12307,10.35671 3.24923,19.07814l-5.95692,11.44689l-4.3323,-11.44689c-5.41538,-14.17233 -23.28613,-26.7094 -45.48918,-31.61521l-16.24614,-3.27054l15.16306,8.72144c10.28922,5.99599 14.62152,13.08215 14.62152,23.43886l0,14.71742l-12.45537,-14.71742c-6.49845,-7.63126 -17.87075,-17.44287 -25.45228,-21.2585c-12.45537,-6.54108 -12.99691,-7.08617 -2.70769,-10.9018c9.20614,-3.27054 9.20614,-4.36072 1.62461,-4.36072c-9.20614,-0.54509 -9.74768,-11.99198 -9.74768,-165.1622c0,-163.52693 0,-164.07202 10.83076,-154.26041c14.07998,12.53706 15.16306,0 1.62461,-15.26251c-9.20614,-10.35671 -9.20614,-10.35671 3.79077,-6.54108c7.58153,1.63527 20.0369,8.17635 28.70151,14.17233l14.62152,10.9018l0,-11.99198c0,-6.54108 -8.66461,-20.16832 -19.49536,-29.97994c-10.28922,-10.35671 -17.87075,-18.53305 -15.7046,-18.53305c6.49845,0 27.07689,12.53706 39.53226,23.43886c6.49845,5.99599 11.91383,8.72144 11.91383,5.99599c0,-9.26653 -12.45537,-22.34868 -32.49227,-34.34066c-27.07689,-16.35269 -5.95692,-14.71742 25.99382,1.63527c30.32612,15.26251 43.32303,28.88976 49.27995,50.14826l3.79077,15.8076l5.95692,-16.89778c7.58153,-21.80359 0,-38.15628 -24.91074,-55.05407c-21.66151,-14.71742 -18.95383,-15.8076 7.58153,-3.27054c14.07998,6.54108 20.57844,14.17233 24.3692,28.34467c2.70769,10.9018 5.41538,78.49293 5.41538,150.98987c0,138.4528 0,138.4528 27.07689,156.98586c15.7046,10.35671 48.19687,11.44689 61.19378,2.18036c14.07998,-10.9018 20.0369,-61.05006 20.0369,-175.51891c0,-88.30454 1.08308,-104.65724 9.20614,-113.37867c7.03999,-8.17635 7.58153,-12.53706 2.70769,-23.43886c-4.87384,-10.35671 -4.3323,-14.71742 2.16615,-21.80359c11.3723,-10.9018 27.61843,-2.18036 37.36611,20.71341l7.03999,17.44287l5.95692,-15.8076c3.79077,-8.72144 4.87384,-20.16832 3.24923,-25.61922c-2.70769,-8.72144 -0.54154,-10.35671 11.91383,-10.35671c21.11998,0 39.53226,14.17233 39.53226,30.52503c0,7.08617 2.70769,13.08215 5.41538,13.08215c3.24923,0 5.41538,49.05808 5.41538,136.81754l0,137.36262l19.49536,17.98796c22.74459,21.80359 52.52917,25.07413 73.10761,8.17635c12.99691,-10.35671 12.99691,-10.9018 15.7046,-164.07202l2.70769,-153.71532l15.16306,-13.08215c12.99691,-10.9018 21.11998,-13.08215 50.36302,-13.08215c31.95073,0 36.82457,1.63527 51.98763,16.35269l16.24614,16.35269l-2.16615,162.43675c-2.16615,137.90771 -3.79077,165.70729 -11.91383,187.51088c-31.95073,86.66928 -150.00599,101.3867 -229.07051,29.43485l-21.66151,-19.07814l-15.7046,21.2585c-8.66461,11.99198 -25.99382,26.7094 -38.99073,33.25048l-23.28613,11.44689l-12.45537,-11.44689c-12.45537,-11.99198 -12.45537,-11.99198 -15.7046,-1.09018c-4.3323,16.89778 -21.11998,13.62724 -33.57535,-5.99599l0,-0.00001z" id="svg_13" stroke="null"/>
      <path d="m1012.516,2532.88058l-13.53845,-13.08215l0,-192.41669c0,-169.52292 1.08308,-194.05196 8.66461,-205.49885l9.20614,-12.53706l12.99691,15.26251c9.74768,11.99198 11.3723,12.53706 7.58153,3.81563c-9.20614,-18.53305 -7.03999,-28.88976 5.41538,-28.88976c8.12307,0 10.28922,2.72545 8.12307,8.17635c-3.79077,10.9018 22.20305,40.88173 43.86457,49.60317c25.45228,10.9018 29.24304,8.72144 5.95692,-3.81563c-23.28613,-11.99198 -25.99382,-24.52904 -10.28922,-43.60718c13.53845,-16.89778 19.49536,-10.9018 9.20614,8.72144c-9.74768,19.07814 -8.12307,21.80359 18.41229,35.43084l20.57844,10.9018l2.16615,85.5791c1.62461,83.39874 2.16615,87.21437 17.87075,115.01394c23.28613,43.60718 66.60916,69.2264 133.75985,80.1282c24.3692,3.81563 42.23995,24.52904 42.23995,49.60317c0,32.70539 -11.91383,46.87772 -19.49536,22.89377c-3.24923,-11.44689 -3.79077,-11.44689 -10.83076,-1.63527c-4.3323,5.4509 -6.49845,14.71742 -4.3323,20.16832c4.87384,15.26251 -21.66151,13.08215 -29.24304,-2.18036c-4.3323,-9.81162 -5.95692,-10.35671 -5.95692,-2.72545c-0.54154,11.99198 -19.49536,11.99198 -31.95073,-0.54509c-4.87384,-4.90581 -12.99691,-8.72144 -17.87075,-7.63126c-9.74768,1.63527 -63.35993,-38.70137 -68.23377,-51.23844c-5.95692,-16.35269 -12.45537,-6.54108 -12.45537,19.07814c0,18.53305 -3.24923,30.52503 -11.3723,40.88173c-10.28922,13.08215 -14.07998,14.17233 -54.15379,14.17233c-38.44919,0 -44.4061,-1.63527 -56.31994,-13.62724l0,-0.00001z" id="svg_14" stroke="null"/>
      <path d="m3142.38441,2231.44593c-10.28922,-2.18036 -11.3723,-8.17635 -4.87384,-25.61922c3.24923,-8.72144 4.87384,-7.63126 7.58153,8.17635c6.49845,30.52503 17.32921,10.9018 16.24614,-28.88976c-0.54154,-31.07012 0.54154,-35.97593 18.95383,-61.05006l19.49536,-27.25449l9.74768,21.80359c11.3723,26.16431 12.45537,46.33263 2.16615,69.77149c-12.45537,29.43485 -43.86457,49.05808 -69.31685,43.06209l0,0.00001z" id="svg_15" stroke="null"/>
    </g>
    <g transform="translate(0 275) scale(0.1 -0.1)" fill="#000000" id="svg_30" stroke="null">
      <path d="m603.72872,2695.31734c-26.53536,-4.90581 -31.95073,-19.62323 -34.65842,-93.75544l-2.70769,-68.68131l-30.86766,-1.63527c-26.53536,-1.63527 -32.49227,-3.81563 -44.94764,-17.98796c-14.62152,-17.98796 -16.78767,-29.97994 -7.58153,-50.14826c8.12307,-17.98796 23.28613,-25.07413 56.31994,-26.7094l27.07689,-1.63527l3.24923,-122.6452c2.70769,-117.1943 6.49845,-147.17424 22.20305,-166.25238c2.16615,-2.72545 9.20614,-11.44689 15.16306,-19.07814c9.20614,-11.44689 11.3723,-12.53706 16.24614,-5.4509c3.24923,4.90581 5.41538,5.4509 5.41538,1.63527c0,-10.35671 16.24614,-23.43886 28.15997,-23.43886c9.20614,0 10.28922,2.18036 7.58153,13.62724c-4.87384,18.53305 4.87384,17.44287 24.91074,-2.72545c15.16306,-15.26251 18.41229,-16.35269 59.02763,-16.35269c62.81839,0 85.56298,15.8076 86.10452,58.32461c0,31.61521 -19.49536,47.42281 -52.52917,42.517c-12.45537,-1.63527 -32.49227,-0.54509 -44.4061,2.72545c-18.95383,4.90581 -22.74459,8.72144 -27.61843,27.25449c-3.24923,11.99198 -4.87384,61.59515 -4.3323,115.55903l1.62461,94.30053l58.48609,2.72545c53.61225,2.72545 60.1107,3.81563 69.31685,15.8076c12.99691,16.35269 12.99691,43.06209 -0.54154,60.50497c-9.20614,12.53706 -14.07998,13.62724 -68.77531,16.35269l-58.48609,2.72545l-2.70769,68.13622c-1.62461,37.61119 -4.87384,71.40676 -7.58153,75.76748c-10.83076,17.44287 -55.23686,26.16431 -93.14451,18.53305l-0.00002,0z" id="svg_16" stroke="null" style="fill: url(#gradient-3);"/>
      <path d="m3380.19333,2676.78428c-12.99691,-2.72545 -24.3692,-5.4509 -24.91074,-5.99599c-7.58153,-8.17635 -50.36302,-110.65323 -48.19687,-113.92376c1.62461,-2.72545 12.45537,-9.81162 24.3692,-15.8076c11.3723,-5.99599 21.11998,-11.99198 21.11998,-13.08215c0,-1.09018 -19.49536,-43.06209 -43.32303,-93.21035c-23.82767,-50.14826 -43.32303,-92.12017 -43.32303,-92.66526c0,-1.09018 20.57844,-13.08215 45.48918,-26.7094c51.4461,-28.34467 49.82148,-24.52904 27.61843,-79.58311c-18.95383,-45.78754 -78.52299,-211.49484 -78.52299,-218.03591c0,-4.36072 38.44919,-27.25449 45.48918,-27.25449c1.62461,0 3.24923,9.26653 4.3323,20.71341l1.62461,20.16832l10.83076,-17.44287c5.41538,-9.81162 11.91383,-17.98796 13.53845,-17.98796c1.62461,0 25.99382,56.68934 53.61225,125.91574l50.90456,125.37065l-34.65842,35.97593c-45.48918,47.42281 -48.19687,50.69335 -48.19687,56.14425c0,2.18036 11.91383,29.97994 26.53536,61.59515c17.87075,38.70137 24.91074,58.32461 20.57844,60.50497c-3.79077,1.63527 -3.24923,2.72545 1.62461,3.27054c7.03999,0.54509 54.15379,93.21035 54.15379,106.8376c0,3.27054 -8.66461,13.62724 -18.41229,23.43886l-18.95383,18.53305l12.99691,26.16431c9.74768,18.53305 11.3723,26.7094 6.49845,28.34467c-3.79077,1.63527 -2.70769,3.27054 3.24923,3.27054c4.87384,0.54509 9.20614,3.27054 9.20614,5.99599c0,6.54108 -41.69842,5.99599 -75.27376,-0.54509l0,-0.00004z" id="svg_17" stroke="null" style="fill: rgb(0, 117, 233);"/>
      <path d="m3487.95936,2674.05883c0,-3.81563 10.83076,-15.8076 24.3692,-26.7094l23.82767,-20.16832l-15.7046,-32.1603c-9.20614,-17.44287 -16.24614,-38.15628 -16.24614,-45.78754c0,-8.17635 -2.16615,-13.08215 -4.3323,-11.44689c-4.3323,2.18036 -77.43991,-145.53897 -76.89838,-155.35059c0,-2.18036 18.95383,-19.07814 42.23995,-37.61119c22.74459,-19.07814 43.32303,-35.97593 46.03072,-38.15628c2.16615,-1.63527 -23.82767,-77.94784 -57.94455,-169.52292c-43.32303,-115.55903 -60.1107,-166.79747 -55.7784,-169.52292c8.12307,-4.90581 77.43991,-5.4509 100.72604,-1.09018c14.62152,3.27054 17.32921,5.99599 14.62152,15.26251c-1.08308,6.54108 -4.3323,27.25449 -6.49845,46.87772l-3.24923,35.43084l18.41229,-17.98796l18.95383,-17.98796l42.23995,97.02598c23.28613,53.4188 45.48918,104.65724 49.27995,113.92376l7.03999,16.89778l-53.07071,36.52102l-53.61225,37.06611l54.15379,105.20233l53.61225,105.74742l-24.91074,16.89778l-24.91074,17.44287l16.24614,29.43485c16.24614,27.79958 16.24614,29.43485 6.49845,34.88575c-5.95692,2.72545 -15.7046,5.4509 -21.66151,5.4509c-5.95692,0 -12.45537,2.72545 -14.62152,5.99599c-9.20614,15.26251 -88.81221,36.52102 -88.81221,23.43886l-0.00001,-0.00002z" id="svg_18" stroke="null" style="fill: rgb(0, 90, 180);"/>
      <path d="m4503.88439,2666.97267c-20.0369,-2.72545 -30.32612,-8.17635 -41.69842,-21.2585l-15.7046,-17.44287l0,-287.8074c0,-275.81543 0.54154,-287.8074 10.83076,-304.70519c5.95692,-10.35671 16.78767,-19.07814 25.45228,-21.2585c8.12307,-1.63527 18.41229,-4.36072 22.74459,-5.4509c4.3323,-1.63527 9.74768,0.54509 11.91383,3.81563c2.70769,4.90581 8.12307,4.90581 21.66151,0c29.24304,-10.35671 101.80912,-13.08215 156.50444,-6.54108c72.02454,9.26653 98.55989,16.35269 101.80912,28.88976c2.70769,10.35671 11.91383,13.62724 11.91383,4.36072c0,-11.44689 10.28922,-4.36072 15.7046,10.9018c5.95692,18.53305 11.91383,22.34868 7.58153,5.4509c-3.79077,-13.62724 7.58153,-14.71742 11.3723,-1.09018c2.16615,5.99599 9.74768,16.35269 17.87075,23.43886l14.07998,13.08215l-6.49845,-12.53706c-3.79077,-7.08617 -5.41538,-14.17233 -4.3323,-15.8076c3.24923,-3.27054 17.32921,21.2585 15.7046,26.7094c-0.54154,2.18036 2.70769,2.72545 7.58153,0.54509c10.83076,-3.81563 43.32303,31.07012 63.35993,67.59113c25.45228,47.9679 37.36611,104.65724 37.90765,184.24035c0.54154,80.1282 -7.03999,117.73939 -34.11689,172.24837c-33.03381,65.41077 -91.5199,113.37867 -170.04289,139.54298c-40.61534,13.08215 -51.98763,14.71742 -149.46445,15.8076c-57.94455,0.54509 -117.51372,-0.54509 -132.13524,-2.72545l0.00001,-0.00001zm199.82747,-115.55903c75.8153,-14.17233 117.51372,-57.77952 132.13524,-138.4528c16.24614,-87.75945 -2.16615,-194.05196 -41.15688,-240.38459c-5.41538,-6.54108 -28.70151,-24.52904 -51.98763,-40.88173c-41.69842,-28.88976 -43.86457,-29.43485 -88.81221,-32.1603c-24.91074,-1.63527 -49.82148,-1.09018 -54.69532,0.54509c-5.41538,2.18036 -22.20305,15.8076 -38.44919,31.07012l-29.24304,27.79958l3.79077,45.24245c2.16615,25.07413 5.95692,47.42281 8.66461,50.14826c10.28922,10.35671 16.24614,-4.90581 16.24614,-41.42682c0,-31.07012 1.62461,-37.61119 7.58153,-35.43084c4.87384,2.18036 9.20614,-1.09018 11.3723,-7.63126c3.79077,-10.9018 3.79077,-10.9018 11.91383,0.54509c7.58153,10.9018 7.58153,12.53706 0,16.89778c-5.95692,3.81563 -7.58153,9.81162 -5.41538,23.43886c2.70769,18.53305 -7.03999,44.69736 -22.20305,57.23443c-4.3323,3.81563 -20.0369,8.17635 -34.11689,9.26653c-42.23995,4.36072 -67.69223,39.24646 -36.82457,51.23844c7.58153,2.72545 13.53845,9.26653 13.53845,14.71742c0,8.17635 -1.08308,8.72144 -5.41538,1.63527c-9.74768,-14.17233 -16.24614,4.90581 -16.24614,46.33263c0,56.68934 16.24614,88.84963 60.1107,117.1943c18.41229,11.99198 36.82457,21.80359 40.61534,21.80359c3.79077,0 9.74768,4.90581 12.99691,10.35671c8.66461,16.89778 51.4461,21.2585 105.59988,10.9018l-0.00002,-0.00001z" id="svg_19" stroke="null" style="fill: rgb(237, 99, 19); opacity: 0.93;"/>
      <path d="m3835.62667,2657.70614c-6.49845,-4.36072 -11.91383,-13.62724 -11.91383,-20.16832c0,-6.54108 33.03381,-74.6773 73.10761,-150.98987c40.0738,-76.31257 73.10761,-141.17825 73.10761,-143.9037c0,-4.90581 -34.65842,-71.95185 -108.84911,-210.94975c-23.82767,-43.60718 -42.78149,-83.94383 -42.78149,-90.4849c0,-21.2585 16.24614,-28.88976 62.27685,-28.88976c32.49227,0 44.94764,2.18036 53.07071,9.26653c5.95692,5.4509 9.20614,6.54108 7.03999,3.27054c-7.03999,-12.53706 10.28922,-7.63126 28.15997,8.17635c12.99691,10.9018 27.61843,39.24646 60.1107,115.55903c23.28613,55.59916 44.94764,100.29652 47.11379,100.29652c2.70769,-0.54509 22.20305,-41.42682 42.78149,-91.57508c27.07689,-64.86568 40.0738,-89.39472 45.48918,-87.75945c5.95692,2.18036 5.95692,1.09018 1.08308,-4.90581c-4.87384,-5.99599 -4.87384,-8.72144 0,-11.99198c3.79077,-2.18036 10.28922,1.63527 16.24614,9.26653c12.45537,16.35269 14.07998,2.18036 1.62461,-15.8076c-10.28922,-15.26251 -2.70769,-15.26251 16.24614,-0.54509c15.16306,11.99198 17.32921,10.35671 8.66461,-6.54108c-7.58153,-14.17233 0,-13.08215 23.82767,3.27054c21.11998,14.71742 23.82767,10.9018 11.3723,-13.62724c-6.49845,-13.08215 -7.03999,-16.35269 -1.08308,-16.35269c3.79077,0 9.74768,2.72545 13.53845,6.54108c4.87384,4.90581 6.49845,4.90581 6.49845,0c0,-8.17635 25.45228,-8.72144 30.32612,0c2.16615,3.27054 5.41538,13.62724 7.58153,22.89377l3.79077,16.89778l4.3323,-22.89377c3.24923,-20.16832 5.41538,-22.34868 14.07998,-17.98796c5.41538,3.27054 11.3723,10.35671 12.99691,16.35269c3.24923,10.9018 -2.16615,22.34868 -110.47372,228.39262c-21.11998,39.79155 -38.44919,76.31257 -38.44919,81.21838c0,4.36072 33.03381,69.77149 73.10761,145.53897c40.0738,75.76748 73.10761,141.72334 73.10761,146.62915c0,4.90581 -4.87384,13.62724 -10.83076,19.62323c-8.66461,8.72144 -17.87075,10.9018 -49.82148,10.9018c-49.82148,0 -74.19069,-7.08617 -92.06144,-25.61922c-8.12307,-8.72144 -33.03381,-58.8697 -56.31994,-112.28849c-23.28613,-52.87371 -43.86457,-94.84562 -46.03072,-92.66526c-2.16615,2.72545 -22.74459,47.42281 -45.48918,99.75143c-22.74459,52.32862 -44.4061,98.66125 -47.65533,103.02197c-21.66151,26.16431 -120.76294,38.70137 -148.92291,19.07814l0,-0.00003z" id="svg_20" stroke="null" style="fill: rgb(237, 99, 19); filter: url(#drop-shadow-filter-0); opacity: 0.96;"/>
      <path d="m5294.52966,2648.9847c-2.70769,-11.44689 -2.70769,-29.43485 -1.08308,-39.79155c2.16615,-10.35671 2.70769,-19.07814 1.08308,-19.07814c-5.95692,0 -15.16306,23.98395 -19.49536,48.51299l-4.3323,25.07413l-0.54154,-29.97994c0,-17.44287 3.24923,-36.52102 7.58153,-45.78754c4.87384,-8.72144 7.03999,-16.89778 5.41538,-18.53305c-6.49845,-6.54108 -29.78458,25.07413 -40.0738,53.4188c-10.28922,27.79958 -10.83076,28.34467 -7.58153,8.17635c1.62461,-11.99198 5.41538,-26.16431 8.12307,-31.61521c8.12307,-15.8076 1.62461,-16.35269 -15.7046,-1.63527l-16.24614,14.17233l-8.66461,-23.43886c-19.49536,-51.78353 -166.25212,-489.49062 -166.25212,-496.0317c-0.54154,-3.27054 -3.79077,-15.8076 -8.12307,-27.25449c-7.03999,-20.71341 -7.03999,-20.71341 3.24923,-11.44689c11.91383,10.9018 13.53845,3.27054 2.16615,-11.99198c-9.20614,-11.99198 -10.28922,-18.53305 -2.70769,-18.53305c8.66461,0 32.49227,39.79155 32.49227,54.50898c0.54154,12.53706 1.08308,12.53706 5.95692,3.81563c8.12307,-13.62724 2.16615,-41.42682 -12.45537,-56.68934c-6.49845,-7.08617 -9.20614,-12.53706 -5.95692,-12.53706c8.12307,0 33.57535,31.07012 43.32303,51.78353l7.58153,16.35269l-2.70769,-17.98796c-1.62461,-10.35671 -8.66461,-26.16431 -15.16306,-35.43084c-6.49845,-9.26653 -8.66461,-14.71742 -3.79077,-11.99198c23.28613,14.17233 44.4061,33.79557 51.98763,48.51299c8.12307,16.35269 8.66461,16.35269 12.99691,4.36072c5.41538,-14.71742 1.62461,-26.7094 -13.53845,-44.15227l-11.3723,-12.53706l13.53845,3.81563c16.78767,4.90581 32.49227,18.53305 32.49227,27.79958c0,3.81563 2.70769,7.63126 6.49845,8.72144c3.79077,1.63527 12.99691,24.52904 20.57844,51.23844l13.53845,48.51299l102.35066,0l102.89219,0l4.3323,-19.07814c2.70769,-10.35671 10.28922,-35.97593 16.24614,-57.23443l11.3723,-38.15628l6.49845,21.80359l7.03999,21.80359l0.54154,-17.98796c0.54154,-22.34868 8.12307,-37.06611 22.74459,-45.24245c11.3723,-5.99599 11.3723,-5.4509 -0.54154,9.81162c-15.16306,21.2585 -15.16306,45.24245 -0.54154,66.50095c6.49845,9.26653 13.53845,16.89778 15.7046,17.44287c2.16615,0 12.45537,1.09018 23.82767,1.63527c18.41229,0.54509 18.95383,0 11.91383,-9.81162c-4.3323,-5.99599 -7.58153,-16.35269 -7.58153,-22.34868c0.54154,-7.63126 2.70769,-5.4509 8.66461,8.17635c5.41538,11.99198 9.74768,16.35269 11.91383,12.53706c2.70769,-4.90581 6.49845,-2.72545 11.3723,5.4509c7.58153,11.44689 7.03999,11.44689 -2.70769,3.81563c-9.20614,-7.63126 -9.74768,-7.63126 -3.24923,1.09018c4.3323,4.90581 10.28922,8.17635 14.62152,6.54108c3.79077,-1.63527 8.66461,-0.54509 10.28922,2.18036c2.70769,4.36072 -96.93528,306.88555 -144.04907,438.79727c-10.83076,29.97994 -17.32921,37.61119 -21.66151,24.52904c-3.24923,-9.81162 -15.16306,0.54509 -15.7046,13.62724c0,11.44689 -0.54154,11.44689 -4.3323,1.09018l-4.3323,-10.9018l-2.70769,10.9018c-2.70769,9.26653 -3.24923,8.72144 -4.3323,-2.72545c-1.08308,-11.44689 -2.16615,-10.35671 -8.12307,8.17635c-4.3323,11.99198 -7.58153,17.98796 -8.12307,13.62724c-0.54154,-4.36072 -3.24923,-2.18036 -5.41538,5.4509c-4.3323,12.53706 -4.3323,12.53706 -4.87384,-4.36072c-0.54154,-9.81162 2.16615,-23.43886 5.41538,-29.97994c4.87384,-9.26653 4.87384,-10.35671 -0.54154,-5.99599c-3.24923,3.27054 -9.74768,15.8076 -14.07998,27.25449l-8.12307,21.2585l2.70769,-24.52904l2.16615,-24.52904l-7.03999,21.80359c-7.58153,23.43886 -10.28922,18.53305 -8.66461,-16.35269l0.54154,-21.80359l-8.66461,15.8076c-4.87384,8.17635 -10.28922,31.61521 -12.45537,51.78353c-3.79077,34.88575 -4.3323,35.43084 -8.12307,15.8076l0.00001,0zm50.90456,-243.11004c17.87075,-65.95586 32.49227,-124.28047 32.49227,-128.64119c0,-7.63126 -9.74768,-8.72144 -67.69223,-8.72144c-61.73532,0 -67.69223,1.09018 -67.69223,9.81162c0,9.26653 47.65533,195.14214 60.1107,234.38861c3.24923,9.81162 7.03999,17.44287 8.12307,15.8076c1.08308,-1.09018 16.78767,-56.14425 34.65842,-122.6452z" id="svg_21" stroke="null" style="paint-order: fill; fill: rgb(237, 99, 19); opacity: 0.96;"/>
      <path d="m3277.84267,2641.89854c-12.99691,-7.63126 -26.53536,-11.99198 -29.78458,-9.81162c-2.70769,1.63527 -3.79077,1.09018 -2.16615,-2.18036c2.16615,-3.27054 -9.74768,-14.71742 -26.53536,-26.16431c-26.53536,-18.53305 -83.39683,-82.30856 -83.39683,-93.21035c0,-2.72545 7.58153,-9.26653 16.24614,-14.17233c9.74768,-5.4509 16.24614,-13.62724 16.24614,-20.71341c0,-5.99599 2.70769,-10.35671 6.49845,-9.26653c10.28922,2.18036 18.41229,-26.7094 9.74768,-37.06611c-6.49845,-7.63126 -8.12307,-7.63126 -17.87075,1.09018c-8.12307,7.63126 -11.3723,8.17635 -12.99691,2.72545c-2.16615,-5.4509 -4.3323,-5.4509 -10.28922,-0.54509c-5.95692,4.90581 -10.83076,2.18036 -24.3692,-11.44689c-15.7046,-15.26251 -16.78767,-19.07814 -13.53845,-41.42682c2.70769,-19.62323 1.62461,-23.98395 -5.95692,-23.98395c-7.03999,0 -8.12307,4.36072 -5.41538,24.52904c4.87384,35.43084 -4.87384,29.97994 -12.99691,-6.54108c-4.3323,-21.2585 -4.3323,-35.97593 -1.08308,-45.78754c3.24923,-7.63126 4.3323,-27.79958 2.70769,-44.69736l-2.16615,-31.07012l26.53536,0c53.61225,0 91.5199,-45.78754 86.64606,-104.65724c-1.62461,-16.89778 -7.03999,-38.15628 -12.45537,-47.42281c-9.74768,-16.89778 -5.95692,-31.61521 6.49845,-23.43886c5.95692,3.81563 77.98145,144.44879 77.98145,152.08005c0,6.54108 -51.98763,34.88575 -56.31994,30.52503c-1.62461,-1.63527 -3.24923,-0.54509 -3.24923,3.27054c0,4.36072 -3.24923,5.99599 -8.66461,3.81563c-4.3323,-1.63527 -6.49845,-1.09018 -4.87384,1.63527c1.62461,3.27054 -4.3323,9.81162 -13.53845,15.26251c-9.74768,5.4509 -15.16306,12.53706 -13.53845,16.89778c2.70769,7.08617 81.77222,142.26843 98.55989,168.43274c7.03999,10.9018 5.95692,12.53706 -19.49536,26.16431l-27.07689,14.71742l48.73841,73.04203c26.53536,40.33664 45.48918,73.04203 41.69842,73.04203c-3.79077,0 -17.87075,-5.99599 -30.32612,-13.62724l0.00001,0.00001z" id="svg_22" stroke="null" style="fill: rgb(69, 161, 254);"/>
      <path d="m3697.53451,2550.32345c-11.91383,-18.53305 -91.5199,-179.33454 -89.35375,-180.96981c1.08308,-0.54509 26.53536,-14.17233 57.40301,-29.43485c30.32612,-15.26251 55.23686,-28.88976 55.23686,-30.52503c0,-3.27054 -16.78767,-46.87772 -73.64915,-190.23633c-24.91074,-63.23041 -44.4061,-115.55903 -42.78149,-116.64921c5.95692,-5.99599 57.94455,27.25449 91.5199,58.8697c57.94455,55.05407 62.27685,59.95988 66.06762,80.67329c2.70769,14.71742 1.62461,20.71341 -5.41538,25.61922c-7.58153,5.99599 -8.12307,7.63126 -0.54154,13.62724c7.03999,5.99599 7.58153,5.4509 5.41538,-1.09018c-1.62461,-4.36072 0,-10.9018 4.3323,-14.17233c5.41538,-4.90581 9.20614,-2.72545 16.24614,8.72144c12.99691,22.89377 30.86766,92.66526 30.86766,123.19029c0,22.89377 -1.08308,25.61922 -8.12307,19.62323c-4.3323,-3.81563 -8.12307,-10.9018 -8.12307,-16.35269c0,-4.90581 -3.79077,-9.26653 -8.12307,-9.26653c-10.28922,0 -10.28922,3.27054 1.08308,15.8076c8.66461,9.81162 8.66461,11.44689 -0.54154,25.07413c-19.49536,31.07012 -27.07689,53.96389 -27.61843,88.30454c-0.54154,31.07012 -2.16615,35.97593 -12.45537,40.88173c-15.7046,7.08617 -15.16306,9.26653 4.87384,20.16832l16.24614,9.81162l-11.91383,17.44287c-14.62152,21.80359 -43.32303,53.4188 -48.73841,53.4188c-2.16615,0 -7.58153,-5.4509 -11.91383,-12.53706z" id="svg_23" stroke="null" style="fill: rgb(0, 73, 146);"/>
      <path d="m163.99998,2544.87256c-12.45537,-7.08617 -21.11998,-14.17233 -18.95383,-16.35269c1.62461,-2.18036 0,-3.81563 -4.3323,-3.81563c-4.3323,0 -13.53845,-1.63527 -21.11998,-3.27054c-10.83076,-2.18036 -11.91383,-1.63527 -5.41538,2.72545c9.74768,7.08617 0.54154,7.63126 -10.83076,0.54509c-8.66461,-5.4509 -3.79077,-8.17635 29.24304,-16.89778c14.62152,-3.81563 13.53845,-4.36072 -7.58153,-2.72545c-13.53845,0.54509 -29.24304,3.27054 -35.19996,4.90581c-5.95692,2.18036 -1.08308,-1.09018 10.83076,-7.08617c22.74459,-11.44689 18.95383,-14.71742 -6.49845,-5.4509c-14.62152,5.4509 -14.62152,4.90581 -4.3323,-3.27054c5.95692,-4.90581 19.49536,-12.53706 29.78458,-17.44287c16.78767,-7.63126 17.32921,-8.72144 7.03999,-10.9018c-6.49845,-1.09018 -23.28613,3.27054 -37.36611,9.26653c-14.07998,6.54108 -27.07689,10.35671 -28.70151,8.17635c-4.87384,-4.90581 16.24614,-18.53305 33.57535,-22.34868c25.45228,-5.4509 8.12307,-11.99198 -17.87075,-7.08617c-13.53845,2.18036 -25.45228,3.27054 -26.53536,2.18036c-4.3323,-4.36072 37.36611,-18.53305 54.15379,-18.53305c15.16306,0 16.24614,-1.09018 9.74768,-8.72144c-5.41538,-6.54108 -14.07998,-8.17635 -38.44919,-6.54108c-34.11689,2.72545 -35.7415,-0.54509 -5.41538,-9.81162l20.0369,-5.4509l-20.0369,-7.63126c-11.3723,-4.36072 -20.57844,-9.81162 -20.57844,-11.99198c0,-11.99198 22.74459,-47.9679 38.99073,-61.59515c23.28613,-20.16832 53.61225,-33.25048 105.59988,-46.33263c23.28613,-5.99599 48.73841,-13.62724 57.40301,-16.89778c25.99382,-10.9018 26.53536,-52.32862 1.08308,-63.7755c-19.49536,-9.26653 -74.19069,-8.17635 -127.2614,2.18036c-40.0738,7.63126 -45.48918,7.63126 -57.40301,-0.54509c-17.32921,-11.44689 -18.41229,-50.69335 -2.16615,-74.13221c14.07998,-19.62323 36.82457,-26.16431 106.14142,-30.52503c54.15379,-3.27054 54.69532,-3.27054 59.02763,9.81162l4.3323,13.08215l2.16615,-11.99198c3.24923,-17.98796 10.83076,-15.26251 17.87075,6.54108c3.24923,10.35671 8.66461,20.71341 11.91383,22.34868c3.24923,2.18036 3.24923,-0.54509 -0.54154,-7.63126c-8.66461,-16.35269 -7.58153,-33.79557 2.16615,-33.79557c5.41538,0 8.12307,5.4509 8.12307,16.35269c0,22.34868 25.45228,50.14826 47.11379,51.78353l16.78767,1.09018l-10.28922,-14.71742c-7.03999,-8.72144 -9.20614,-17.98796 -7.03999,-23.98395c3.24923,-8.72144 4.87384,-7.08617 9.74768,7.63126c3.24923,9.81162 11.91383,21.80359 19.49536,26.7094l12.99691,8.72144l-9.20614,-13.62724c-4.87384,-7.08617 -9.20614,-18.53305 -9.20614,-24.52904c0,-8.72144 2.16615,-7.63126 8.12307,5.4509c4.87384,9.26653 13.53845,19.62323 20.57844,23.98395c9.20614,5.99599 10.28922,5.99599 5.41538,0c-11.91383,-11.99198 -7.58153,-17.98796 4.3323,-7.08617c17.32921,15.26251 26.53536,41.97191 26.53536,76.31257c0,84.48892 -40.61534,125.37065 -148.38137,148.80951c-50.36302,10.9018 -65.52608,17.98796 -73.64915,33.25048c-8.12307,15.26251 -6.49845,26.16431 5.41538,38.15628c9.20614,9.26653 17.87075,10.9018 62.27685,10.9018c27.61843,0 63.35993,-2.72545 79.06453,-5.99599c33.03381,-7.08617 50.90456,-1.09018 59.02763,19.62323c11.3723,29.43485 -10.28922,68.68131 -42.23995,75.76748c-8.12307,1.63527 -48.73841,4.36072 -90.43682,5.99599c-71.483,2.72545 -76.89838,2.18036 -99.10143,-9.81162l0,0.00001z" id="svg_24" stroke="null" style="fill: url(#gradient-5); fill-rule: evenodd; fill-opacity: 0.94; paint-order: fill;"/>
      <path d="m1544.37998,2542.6922c-7.58153,-18.53305 -27.07689,-34.34066 -46.03072,-37.06611c-5.95692,-0.54509 -16.24614,-3.27054 -22.20305,-5.99599c-9.20614,-3.81563 -8.66461,-1.63527 4.3323,13.62724c18.41229,22.34868 20.57844,43.60718 2.16615,22.34868c-6.49845,-7.63126 -16.24614,-20.16832 -21.11998,-27.25449c-8.66461,-12.53706 -9.20614,-13.08215 -9.20614,-2.18036c-0.54154,5.99599 2.16615,13.62724 5.95692,17.44287c4.3323,4.36072 4.87384,6.54108 0.54154,6.54108c-3.24923,0 -11.3723,-6.54108 -17.87075,-14.71742c-10.83076,-14.71742 -11.3723,-14.71742 -7.58153,-2.18036l3.24923,13.08215l-16.78767,-11.99198c-46.03072,-33.25048 -70.94146,-98.11616 -70.94146,-184.78544c0,-88.30454 18.41229,-141.72334 62.81839,-180.96981c17.87075,-15.8076 21.11998,-16.89778 26.53536,-9.26653c7.58153,10.35671 18.95383,2.18036 18.95383,-13.08215c0,-14.17233 21.66151,-19.62323 30.32612,-7.63126c6.49845,8.72144 7.58153,8.17635 10.28922,-4.36072c2.70769,-9.26653 8.12307,-14.71742 20.0369,-16.89778c21.11998,-4.36072 27.61843,0.54509 24.3692,16.35269c-1.08308,7.08617 0,13.08215 2.70769,13.08215c9.74768,0 47.65533,-22.34868 47.65533,-28.34467c0,-7.08617 87.1876,-2.72545 109.39065,5.99599c17.87075,6.54108 36.82457,35.43084 36.82457,55.59916c0,8.17635 -4.3323,20.16832 -10.28922,27.25449c-9.74768,12.53706 -9.74768,12.53706 -64.44301,4.90581c-93.68605,-12.53706 -147.83984,2.18036 -168.41827,45.78754c-6.49845,12.53706 -11.3723,28.34467 -11.3723,34.88575c0,11.99198 0,11.99198 127.80293,11.99198l127.80293,0l15.7046,15.8076c12.99691,13.62724 15.7046,20.71341 15.7046,42.517c0,35.43084 -12.99691,93.75544 -25.99382,119.91975c-16.78767,32.70539 -52.52917,65.41077 -85.02144,77.40275l-29.24304,10.9018l-17.32921,-16.35269c-9.74768,-8.72144 -20.57844,-14.71742 -24.91074,-13.62724c-4.3323,1.63527 -12.99691,0.54509 -19.49536,-2.18036c-11.3723,-5.4509 -11.3723,-5.4509 0.54154,3.27054c11.91383,8.72144 16.78767,34.88575 6.49845,34.88575c-2.70769,0 -5.41538,-4.36072 -5.41538,-9.81162c0,-9.81162 -15.7046,-27.79958 -32.49227,-36.52102c-4.3323,-2.72545 -2.70769,1.63527 4.3323,9.26653c7.58153,8.72144 11.91383,19.07814 10.83076,27.25449c-1.62461,11.44689 -2.16615,11.44689 -9.20614,-4.90581l-0.00001,0.00002zm63.35993,-88.84963c20.0369,-12.53706 33.57535,-39.24646 33.57535,-68.13622l0,-19.07814l-78.52299,0c-77.98145,0 -78.52299,0 -78.52299,12.53706c0,33.25048 21.11998,69.77149 46.03072,80.1282c20.57844,8.72144 59.02763,5.99599 77.43991,-5.4509z" id="svg_25" stroke="null" style="fill: url(#gradient-2);"/>
      <path d="m1945.118,2548.68818c-36.28304,-5.4509 -48.19687,-9.81162 -60.65224,-21.80359c-26.53536,-25.61922 -25.99382,-64.32059 0.54154,-78.49293c8.12307,-4.36072 22.74459,-3.81563 54.69532,2.72545c56.86148,10.9018 125.09525,10.9018 145.67368,0c10.83076,-5.4509 17.32921,-14.71742 21.11998,-28.88976c9.20614,-32.1603 8.66461,-33.79557 -19.49536,-33.79557c-47.65533,0 -120.2214,-10.9018 -151.08906,-22.34868c-36.82457,-14.17233 -70.94146,-43.60718 -83.93837,-73.04203c-13.53845,-29.97994 -13.53845,-95.9358 0,-125.37065c12.45537,-26.7094 40.0738,-53.96389 66.60916,-65.41077c21.66151,-8.72144 87.72913,-10.35671 82.31375,-1.63527c-4.3323,7.08617 2.70769,31.61521 9.20614,31.61521c2.70769,0 8.12307,-7.63126 10.83076,-16.35269c7.58153,-20.16832 14.62152,-20.71341 18.95383,-1.09018c4.87384,19.62323 16.78767,37.61119 28.15997,41.97191c7.58153,2.72545 7.58153,2.18036 -0.54154,-7.08617c-9.20614,-10.35671 -12.99691,-33.79557 -4.87384,-33.79557c8.12307,0 16.24614,8.72144 17.87075,19.07814c2.70769,12.53706 39.53226,39.24646 61.73532,43.60718c16.24614,3.81563 16.24614,3.81563 -2.70769,-6.54108c-27.07689,-14.17233 -27.07689,-28.88976 0.54154,-52.87371c30.32612,-26.16431 39.53226,-25.07413 13.53845,1.63527c-24.3692,25.07413 -23.82767,37.61119 2.16615,50.69335c25.99382,13.08215 38.99073,11.99198 17.87075,-1.09018c-20.0369,-11.99198 -21.11998,-15.26251 -9.74768,-30.52503c7.58153,-10.35671 7.58153,-10.35671 8.12307,1.09018c0,13.62724 19.49536,32.1603 37.90765,37.06611l13.53845,3.81563l-11.91383,-9.26653c-7.03999,-4.90581 -12.45537,-14.71742 -12.45537,-21.80359c0,-11.44689 2.16615,-10.35671 24.91074,11.99198l24.91074,25.07413l-2.16615,129.18628c-1.62461,128.64119 -1.62461,128.64119 -16.78767,160.2564c-9.20614,18.53305 -18.95383,31.07012 -23.82767,31.07012c-4.87384,0 -7.03999,1.63527 -5.41538,3.81563c2.16615,1.63527 -1.08308,7.08617 -7.58153,11.44689c-9.74768,6.54108 -12.45537,6.54108 -22.20305,-2.72545c-11.3723,-9.81162 -11.3723,-9.81162 -8.66461,4.36072c2.16615,13.08215 0,15.26251 -17.32921,20.71341c-31.95073,9.26653 -42.78149,7.63126 -46.57226,-7.63126c-4.3323,-16.35269 -12.99691,-12.53706 -12.99691,5.99599c0,11.44689 -2.16615,13.08215 -21.11998,13.08215c-15.16306,0 -23.28613,-3.27054 -29.78458,-11.99198l-9.20614,-12.53706l2.70769,12.53706c2.16615,10.9018 0,11.99198 -17.32921,11.44689c-11.3723,-0.54509 -40.61534,-4.36072 -65.52608,-8.17635l-0.00002,0zm163.54443,-270.90962c-2.70769,-45.78754 -25.99382,-74.6773 -69.85838,-84.48892c-43.32303,-9.81162 -72.56607,10.35671 -72.56607,49.05808c0,41.42682 39.53226,64.86568 105.59988,62.68532l37.90765,-1.09018l-1.08308,-26.16431l0,0.00001z" id="svg_26" stroke="null" style="fill: url(#gradient-1);"/>
      <path d="m2575.46807,2539.96675c-5.95692,-9.26653 -14.07998,-18.53305 -17.87075,-19.62323c-5.41538,-1.63527 -4.87384,1.63527 1.62461,11.99198c15.7046,23.98395 -3.24923,17.98796 -40.0738,-13.08215c-18.41229,-15.26251 -33.03381,-25.07413 -33.03381,-21.80359c0,3.81563 -7.58153,4.90581 -20.0369,3.27054l-20.57844,-3.27054l17.32921,5.4509c9.74768,3.27054 18.95383,8.17635 20.57844,10.9018c4.87384,7.63126 -3.79077,6.54108 -25.99382,-2.72545c-10.83076,-4.36072 -23.82767,-8.17635 -29.24304,-7.63126c-7.58153,0 -8.12307,1.09018 -1.62461,3.27054c4.3323,1.63527 12.45537,6.54108 17.32921,11.44689c7.58153,6.54108 8.12307,10.35671 3.24923,19.07814l-5.95692,11.44689l-4.3323,-11.44689c-5.41538,-14.17233 -23.28613,-26.7094 -45.48918,-31.61521l-16.24614,-3.27054l15.16306,8.72144c10.28922,5.99599 14.62152,13.08215 14.62152,23.43886l0,14.71742l-12.45537,-14.71742c-6.49845,-7.63126 -17.87075,-17.44287 -25.45228,-21.2585c-12.45537,-6.54108 -12.99691,-7.08617 -2.70769,-10.9018c9.20614,-3.27054 9.20614,-4.36072 1.62461,-4.36072c-9.20614,-0.54509 -9.74768,-11.99198 -9.74768,-165.1622c0,-163.52693 0,-164.07202 10.83076,-154.26041c14.07998,12.53706 15.16306,0 1.62461,-15.26251c-9.20614,-10.35671 -9.20614,-10.35671 3.79077,-6.54108c7.58153,1.63527 20.0369,8.17635 28.70151,14.17233l14.62152,10.9018l0,-11.99198c0,-6.54108 -8.66461,-20.16832 -19.49536,-29.97994c-10.28922,-10.35671 -17.87075,-18.53305 -15.7046,-18.53305c6.49845,0 27.07689,12.53706 39.53226,23.43886c6.49845,5.99599 11.91383,8.72144 11.91383,5.99599c0,-9.26653 -12.45537,-22.34868 -32.49227,-34.34066c-27.07689,-16.35269 -5.95692,-14.71742 25.99382,1.63527c30.32612,15.26251 43.32303,28.88976 49.27995,50.14826l3.79077,15.8076l5.95692,-16.89778c7.58153,-21.80359 0,-38.15628 -24.91074,-55.05407c-21.66151,-14.71742 -18.95383,-15.8076 7.58153,-3.27054c14.07998,6.54108 20.57844,14.17233 24.3692,28.34467c2.70769,10.9018 5.41538,78.49293 5.41538,150.98987c0,138.4528 0,138.4528 27.07689,156.98586c15.7046,10.35671 48.19687,11.44689 61.19378,2.18036c14.07998,-10.9018 20.0369,-61.05006 20.0369,-175.51891c0,-88.30454 1.08308,-104.65724 9.20614,-113.37867c7.03999,-8.17635 7.58153,-12.53706 2.70769,-23.43886c-4.87384,-10.35671 -4.3323,-14.71742 2.16615,-21.80359c11.3723,-10.9018 27.61843,-2.18036 37.36611,20.71341l7.03999,17.44287l5.95692,-15.8076c3.79077,-8.72144 4.87384,-20.16832 3.24923,-25.61922c-2.70769,-8.72144 -0.54154,-10.35671 11.91383,-10.35671c21.11998,0 39.53226,14.17233 39.53226,30.52503c0,7.08617 2.70769,13.08215 5.41538,13.08215c3.24923,0 5.41538,49.05808 5.41538,136.81754l0,137.36262l19.49536,17.98796c22.74459,21.80359 52.52917,25.07413 73.10761,8.17635c12.99691,-10.35671 12.99691,-10.9018 15.7046,-164.07202l2.70769,-153.71532l15.16306,-13.08215c12.99691,-10.9018 21.11998,-13.08215 50.36302,-13.08215c31.95073,0 36.82457,1.63527 51.98763,16.35269l16.24614,16.35269l-2.16615,162.43675c-2.16615,137.90771 -3.79077,165.70729 -11.91383,187.51088c-31.95073,86.66928 -150.00599,101.3867 -229.07051,29.43485l-21.66151,-19.07814l-15.7046,21.2585c-8.66461,11.99198 -25.99382,26.7094 -38.99073,33.25048l-23.28613,11.44689l-12.45537,-11.44689c-12.45537,-11.99198 -12.45537,-11.99198 -15.7046,-1.09018c-4.3323,16.89778 -21.11998,13.62724 -33.57535,-5.99599l0,-0.00001z" id="svg_27" stroke="null" style="fill: url(#gradient-0);"/>
      <path d="m972.516,2532.88058l-13.53845,-13.08215l0,-192.41669c0,-169.52292 1.08308,-194.05196 8.66461,-205.49885l9.20614,-12.53706l12.99691,15.26251c9.74768,11.99198 11.3723,12.53706 7.58153,3.81563c-9.20614,-18.53305 -7.03999,-28.88976 5.41538,-28.88976c8.12307,0 10.28922,2.72545 8.12307,8.17635c-3.79077,10.9018 22.20305,40.88173 43.86457,49.60317c25.45228,10.9018 29.24304,8.72144 5.95692,-3.81563c-23.28613,-11.99198 -25.99382,-24.52904 -10.28922,-43.60718c13.53845,-16.89778 19.49536,-10.9018 9.20614,8.72144c-9.74768,19.07814 -8.12307,21.80359 18.41229,35.43084l20.57844,10.9018l2.16615,85.5791c1.62461,83.39874 2.16615,87.21437 17.87075,115.01394c23.28613,43.60718 66.60916,69.2264 133.75985,80.1282c24.3692,3.81563 42.23995,24.52904 42.23995,49.60317c0,32.70539 -11.91383,46.87772 -19.49536,22.89377c-3.24923,-11.44689 -3.79077,-11.44689 -10.83076,-1.63527c-4.3323,5.4509 -6.49845,14.71742 -4.3323,20.16832c4.87384,15.26251 -21.66151,13.08215 -29.24304,-2.18036c-4.3323,-9.81162 -5.95692,-10.35671 -5.95692,-2.72545c-0.54154,11.99198 -19.49536,11.99198 -31.95073,-0.54509c-4.87384,-4.90581 -12.99691,-8.72144 -17.87075,-7.63126c-9.74768,1.63527 -63.35993,-38.70137 -68.23377,-51.23844c-5.95692,-16.35269 -12.45537,-6.54108 -12.45537,19.07814c0,18.53305 -3.24923,30.52503 -11.3723,40.88173c-10.28922,13.08215 -14.07998,14.17233 -54.15379,14.17233c-38.44919,0 -44.4061,-1.63527 -56.31994,-13.62724l0,-0.00001z" id="svg_28" stroke="null" style="fill: url(#gradient-4);"/>
      <path fill="#007fff" d="m3102.38441,2231.44593c-10.28922,-2.18036 -11.3723,-8.17635 -4.87384,-25.61922c3.24923,-8.72144 4.87384,-7.63126 7.58153,8.17635c6.49845,30.52503 17.32921,10.9018 16.24614,-28.88976c-0.54154,-31.07012 0.54154,-35.97593 18.95383,-61.05006l19.49536,-27.25449l9.74768,21.80359c11.3723,26.16431 12.45537,46.33263 2.16615,69.77149c-12.45537,29.43485 -43.86457,49.05808 -69.31685,43.06209l0,0.00001z" id="svg_29" stroke="null"/>
    </g>
  </g>
</svg>