<?xml version="1.0" encoding="utf-8"?>
<svg width="573" height="85" version="1.0" preserveAspectRatio="xMidYMid meet" viewBox="0 5.636 300 38.269" xmlns="http://www.w3.org/2000/svg" xmlns:bx="https://boxy-svg.com">
  <defs>
    <linearGradient gradientUnits="userSpaceOnUse" x1="2668.071" y1="2099.535" x2="2668.071" y2="2558.501" id="gradient-0" gradientTransform="matrix(0.998419, 0, 0, 1.023829, 8.815466, -46.790195)">
      <stop offset="0" style="stop-color: rgba(0, 122, 245, 1)"/>
      <stop offset="1" style="stop-color: rgba(0, 71, 143, 1)"/>
    </linearGradient>
    <linearGradient gradientUnits="userSpaceOnUse" x1="2045.37" y1="2094.844" x2="2045.37" y2="2557.409" id="gradient-1" gradientTransform="matrix(0.998419, 0, 0, 1.023829, 8.815466, -46.790195)">
      <stop offset="0" style="stop-color: rgba(0, 127, 255, 1)"/>
      <stop offset="1" style="stop-color: rgba(0, 76, 153, 1)"/>
    </linearGradient>
    <linearGradient gradientUnits="userSpaceOnUse" x1="1560.084" y1="2094.906" x2="1560.084" y2="2557.409" id="gradient-2" gradientTransform="matrix(0.998419, 0, 0, 1.023829, 8.815466, -46.790195)">
      <stop offset="0" style="stop-color: rgba(0, 127, 255, 1)"/>
      <stop offset="1" style="stop-color: rgba(0, 76, 153, 1)"/>
    </linearGradient>
    <linearGradient gradientUnits="userSpaceOnUse" x1="1126.854" y1="2099.534" x2="1126.854" y2="2547.111" id="gradient-4" gradientTransform="matrix(0.998419, 0, 0, 1.023829, 8.815466, -46.790195)">
      <stop offset="0" style="stop-color: rgba(0, 127, 255, 1)"/>
      <stop offset="1" style="stop-color: rgba(0, 76, 153, 1)"/>
    </linearGradient>
    <linearGradient gradientUnits="userSpaceOnUse" x1="661.046" y1="2094.083" x2="661.046" y2="2698.094" id="gradient-3" gradientTransform="matrix(0.998419, 0, 0, 1.023829, 8.815466, -46.790195)">
      <stop offset="0" style="stop-color: rgba(0, 127, 255, 1)"/>
      <stop offset="1" style="stop-color: rgba(0, 76, 153, 1)"/>
    </linearGradient>
    <linearGradient gradientUnits="userSpaceOnUse" x1="230.133" y1="2093.902" x2="230.133" y2="2556.033" id="gradient-5" gradientTransform="matrix(0.998419, 0, 0, 1.023829, 8.815466, -46.790195)">
      <stop offset="0" style="stop-color: rgba(0, 127, 255, 1)"/>
      <stop offset="1" style="stop-color: rgba(0, 76, 153, 1)"/>
    </linearGradient>
    <filter id="drop-shadow-filter-0" x="-500%" y="-500%" width="1000%" height="1000%" bx:preset="drop-shadow 1 10 10 11 0.5 rgba(0,0,0,0.3)">
      <feGaussianBlur in="SourceAlpha" stdDeviation="11"/>
      <feOffset dx="10" dy="10"/>
      <feComponentTransfer result="offsetblur">
        <feFuncA id="spread-ctrl" type="linear" slope="1"/>
      </feComponentTransfer>
      <feFlood flood-color="rgba(0,0,0,0.3)"/>
      <feComposite in2="offsetblur" operator="in"/>
      <feMerge>
        <feMergeNode/>
        <feMergeNode in="SourceGraphic"/>
      </feMerge>
    </filter>
  </defs>
  <g style="" transform="matrix(0.5096, 0, 0, 0.508886, 4.592524, 3.885236)">
    <title>Layer 1</title>
    <g transform="translate(0 275) scale(0.1 -0.1)" fill="#000000" id="svg_1" stroke="null">
      <path d="m643.72872,2695.31734c-26.53536,-4.90581 -31.95073,-19.62323 -34.65842,-93.75544l-2.70769,-68.68131l-30.86766,-1.63527c-26.53536,-1.63527 -32.49227,-3.81563 -44.94764,-17.98796c-14.62152,-17.98796 -16.78767,-29.97994 -7.58153,-50.14826c8.12307,-17.98796 23.28613,-25.07413 56.31994,-26.7094l27.07689,-1.63527l3.24923,-122.6452c2.70769,-117.1943 6.49845,-147.17424 22.20305,-166.25238c2.16615,-2.72545 9.20614,-11.44689 15.16306,-19.07814c9.20614,-11.44689 11.3723,-12.53706 16.24614,-5.4509c3.24923,4.90581 5.41538,5.4509 5.41538,1.63527c0,-10.35671 16.24614,-23.43886 28.15997,-23.43886c9.20614,0 10.28922,2.18036 7.58153,13.62724c-4.87384,18.53305 4.87384,17.44287 24.91074,-2.72545c15.16306,-15.26251 18.41229,-16.35269 59.02763,-16.35269c62.81839,0 85.56298,15.8076 86.10452,58.32461c0,31.61521 -19.49536,47.42281 -52.52917,42.517c-12.45537,-1.63527 -32.49227,-0.54509 -44.4061,2.72545c-18.95383,4.90581 -22.74459,8.72144 -27.61843,27.25449c-3.24923,11.99198 -4.87384,61.59515 -4.3323,115.55903l1.62461,94.30053l58.48609,2.72545c53.61225,2.72545 60.1107,3.81563 69.31685,15.8076c12.99691,16.35269 12.99691,43.06209 -0.54154,60.50497c-9.20614,12.53706 -14.07998,13.62724 -68.77531,16.35269l-58.48609,2.72545l-2.70769,68.13622c-1.62461,37.61119 -4.87384,71.40676 -7.58153,75.76748c-10.83076,17.44287 -55.23686,26.16431 -93.14451,18.53305l-0.00002,0z" id="svg_2" stroke="null"/>
      <path d="m3420.19333,2676.78428c-12.99691,-2.72545 -24.3692,-5.4509 -24.91074,-5.99599c-7.58153,-8.17635 -50.36302,-110.65323 -48.19687,-113.92376c1.62461,-2.72545 12.45537,-9.81162 24.3692,-15.8076c11.3723,-5.99599 21.11998,-11.99198 21.11998,-13.08215c0,-1.09018 -19.49536,-43.06209 -43.32303,-93.21035c-23.82767,-50.14826 -43.32303,-92.12017 -43.32303,-92.66526c0,-1.09018 20.57844,-13.08215 45.48918,-26.7094c51.4461,-28.34467 49.82148,-24.52904 27.61843,-79.58311c-18.95383,-45.78754 -78.52299,-211.49484 -78.52299,-218.03591c0,-4.36072 38.44919,-27.25449 45.48918,-27.25449c1.62461,0 3.24923,9.26653 4.3323,20.71341l1.62461,20.16832l10.83076,-17.44287c5.41538,-9.81162 11.91383,-17.98796 13.53845,-17.98796c1.62461,0 25.99382,56.68934 53.61225,125.91574l50.90456,125.37065l-34.65842,35.97593c-45.48918,47.42281 -48.19687,50.69335 -48.19687,56.14425c0,2.18036 11.91383,29.97994 26.53536,61.59515c17.87075,38.70137 24.91074,58.32461 20.57844,60.50497c-3.79077,1.63527 -3.24923,2.72545 1.62461,3.27054c7.03999,0.54509 54.15379,93.21035 54.15379,106.8376c0,3.27054 -8.66461,13.62724 -18.41229,23.43886l-18.95383,18.53305l12.99691,26.16431c9.74768,18.53305 11.3723,26.7094 6.49845,28.34467c-3.79077,1.63527 -2.70769,3.27054 3.24923,3.27054c4.87384,0.54509 9.20614,3.27054 9.20614,5.99599c0,6.54108 -41.69842,5.99599 -75.27376,-0.54509l0,-0.00004z" id="svg_3" stroke="null"/>
      <path d="m3527.95936,2674.05883c0,-3.81563 10.83076,-15.8076 24.3692,-26.7094l23.82767,-20.16832l-15.7046,-32.1603c-9.20614,-17.44287 -16.24614,-38.15628 -16.24614,-45.78754c0,-8.17635 -2.16615,-13.08215 -4.3323,-11.44689c-4.3323,2.18036 -77.43991,-145.53897 -76.89838,-155.35059c0,-2.18036 18.95383,-19.07814 42.23995,-37.61119c22.74459,-19.07814 43.32303,-35.97593 46.03072,-38.15628c2.16615,-1.63527 -23.82767,-77.94784 -57.94455,-169.52292c-43.32303,-115.55903 -60.1107,-166.79747 -55.7784,-169.52292c8.12307,-4.90581 77.43991,-5.4509 100.72604,-1.09018c14.62152,3.27054 17.32921,5.99599 14.62152,15.26251c-1.08308,6.54108 -4.3323,27.25449 -6.49845,46.87772l-3.24923,35.43084l18.41229,-17.98796l18.95383,-17.98796l42.23995,97.02598c23.28613,53.4188 45.48918,104.65724 49.27995,113.92376l7.03999,16.89778l-53.07071,36.52102l-53.61225,37.06611l54.15379,105.20233l53.61225,105.74742l-24.91074,16.89778l-24.91074,17.44287l16.24614,29.43485c16.24614,27.79958 16.24614,29.43485 6.49845,34.88575c-5.95692,2.72545 -15.7046,5.4509 -21.66151,5.4509c-5.95692,0 -12.45537,2.72545 -14.62152,5.99599c-9.20614,15.26251 -88.81221,36.52102 -88.81221,23.43886l-0.00001,-0.00002z" id="svg_4" stroke="null"/>
      <path d="m4543.88439,2666.97267c-20.0369,-2.72545 -30.32612,-8.17635 -41.69842,-21.2585l-15.7046,-17.44287l0,-287.8074c0,-275.81543 0.54154,-287.8074 10.83076,-304.70519c5.95692,-10.35671 16.78767,-19.07814 25.45228,-21.2585c8.12307,-1.63527 18.41229,-4.36072 22.74459,-5.4509c4.3323,-1.63527 9.74768,0.54509 11.91383,3.81563c2.70769,4.90581 8.12307,4.90581 21.66151,0c29.24304,-10.35671 101.80912,-13.08215 156.50444,-6.54108c72.02454,9.26653 98.55989,16.35269 101.80912,28.88976c2.70769,10.35671 11.91383,13.62724 11.91383,4.36072c0,-11.44689 10.28922,-4.36072 15.7046,10.9018c5.95692,18.53305 11.91383,22.34868 7.58153,5.4509c-3.79077,-13.62724 7.58153,-14.71742 11.3723,-1.09018c2.16615,5.99599 9.74768,16.35269 17.87075,23.43886l14.07998,13.08215l-6.49845,-12.53706c-3.79077,-7.08617 -5.41538,-14.17233 -4.3323,-15.8076c3.24923,-3.27054 17.32921,21.2585 15.7046,26.7094c-0.54154,2.18036 2.70769,2.72545 7.58153,0.54509c10.83076,-3.81563 43.32303,31.07012 63.35993,67.59113c25.45228,47.9679 37.36611,104.65724 37.90765,184.24035c0.54154,80.1282 -7.03999,117.73939 -34.11689,172.24837c-33.03381,65.41077 -91.5199,113.37867 -170.04289,139.54298c-40.61534,13.08215 -51.98763,14.71742 -149.46445,15.8076c-57.94455,0.54509 -117.51372,-0.54509 -132.13524,-2.72545l0.00001,-0.00001zm199.82747,-115.55903c75.8153,-14.17233 117.51372,-57.77952 132.13524,-138.4528c16.24614,-87.75945 -2.16615,-194.05196 -41.15688,-240.38459c-5.41538,-6.54108 -28.70151,-24.52904 -51.98763,-40.88173c-41.69842,-28.88976 -43.86457,-29.43485 -88.81221,-32.1603c-24.91074,-1.63527 -49.82148,-1.09018 -54.69532,0.54509c-5.41538,2.18036 -22.20305,15.8076 -38.44919,31.07012l-29.24304,27.79958l3.79077,45.24245c2.16615,25.07413 5.95692,47.42281 8.66461,50.14826c10.28922,10.35671 16.24614,-4.90581 16.24614,-41.42682c0,-31.07012 1.62461,-37.61119 7.58153,-35.43084c4.87384,2.18036 9.20614,-1.09018 11.3723,-7.63126c3.79077,-10.9018 3.79077,-10.9018 11.91383,0.54509c7.58153,10.9018 7.58153,12.53706 0,16.89778c-5.95692,3.81563 -7.58153,9.81162 -5.41538,23.43886c2.70769,18.53305 -7.03999,44.69736 -22.20305,57.23443c-4.3323,3.81563 -20.0369,8.17635 -34.11689,9.26653c-42.23995,4.36072 -67.69223,39.24646 -36.82457,51.23844c7.58153,2.72545 13.53845,9.26653 13.53845,14.71742c0,8.17635 -1.08308,8.72144 -5.41538,1.63527c-9.74768,-14.17233 -16.24614,4.90581 -16.24614,46.33263c0,56.68934 16.24614,88.84963 60.1107,117.1943c18.41229,11.99198 36.82457,21.80359 40.61534,21.80359c3.79077,0 9.74768,4.90581 12.99691,10.35671c8.66461,16.89778 51.4461,21.2585 105.59988,10.9018l-0.00002,-0.00001z" id="svg_5" stroke="null"/>
      <path d="m3875.62667,2657.70614c-6.49845,-4.36072 -11.91383,-13.62724 -11.91383,-20.16832c0,-6.54108 33.03381,-74.6773 73.10761,-150.98987c40.0738,-76.31257 73.10761,-141.17825 73.10761,-143.9037c0,-4.90581 -34.65842,-71.95185 -108.84911,-210.94975c-23.82767,-43.60718 -42.78149,-83.94383 -42.78149,-90.4849c0,-21.2585 16.24614,-28.88976 62.27685,-28.88976c32.49227,0 44.94764,2.18036 53.07071,9.26653c5.95692,5.4509 9.20614,6.54108 7.03999,3.27054c-7.03999,-12.53706 10.28922,-7.63126 28.15997,8.17635c12.99691,10.9018 27.61843,39.24646 60.1107,115.55903c23.28613,55.59916 44.94764,100.29652 47.11379,100.29652c2.70769,-0.54509 22.20305,-41.42682 42.78149,-91.57508c27.07689,-64.86568 40.0738,-89.39472 45.48918,-87.75945c5.95692,2.18036 5.95692,1.09018 1.08308,-4.90581c-4.87384,-5.99599 -4.87384,-8.72144 0,-11.99198c3.79077,-2.18036 10.28922,1.63527 16.24614,9.26653c12.45537,16.35269 14.07998,2.18036 1.62461,-15.8076c-10.28922,-15.26251 -2.70769,-15.26251 16.24614,-0.54509c15.16306,11.99198 17.32921,10.35671 8.66461,-6.54108c-7.58153,-14.17233 0,-13.08215 23.82767,3.27054c21.11998,14.71742 23.82767,10.9018 11.3723,-13.62724c-6.49845,-13.08215 -7.03999,-16.35269 -1.08308,-16.35269c3.79077,0 9.74768,2.72545 13.53845,6.54108c4.87384,4.90581 6.49845,4.90581 6.49845,0c0,-8.17635 25.45228,-8.72144 30.32612,0c2.16615,3.27054 5.41538,13.62724 7.58153,22.89377l3.79077,16.89778l4.3323,-22.89377c3.24923,-20.16832 5.41538,-22.34868 14.07998,-17.98796c5.41538,3.27054 11.3723,10.35671 12.99691,16.35269c3.24923,10.9018 -2.16615,22.34868 -110.47372,228.39262c-21.11998,39.79155 -38.44919,76.31257 -38.44919,81.21838c0,4.36072 33.03381,69.77149 73.10761,145.53897c40.0738,75.76748 73.10761,141.72334 73.10761,146.62915c0,4.90581 -4.87384,13.62724 -10.83076,19.62323c-8.66461,8.72144 -17.87075,10.9018 -49.82148,10.9018c-49.82148,0 -74.19069,-7.08617 -92.06144,-25.61922c-8.12307,-8.72144 -33.03381,-58.8697 -56.31994,-112.28849c-23.28613,-52.87371 -43.86457,-94.84562 -46.03072,-92.66526c-2.16615,2.72545 -22.74459,47.42281 -45.48918,99.75143c-22.74459,52.32862 -44.4061,98.66125 -47.65533,103.02197c-21.66151,26.16431 -120.76294,38.70137 -148.92291,19.07814l0,-0.00003z" id="svg_6" stroke="null"/>
      <path d="m5334.52966,2648.9847c-2.70769,-11.44689 -2.70769,-29.43485 -1.08308,-39.79155c2.16615,-10.35671 2.70769,-19.07814 1.08308,-19.07814c-5.95692,0 -15.16306,23.98395 -19.49536,48.51299l-4.3323,25.07413l-0.54154,-29.97994c0,-17.44287 3.24923,-36.52102 7.58153,-45.78754c4.87384,-8.72144 7.03999,-16.89778 5.41538,-18.53305c-6.49845,-6.54108 -29.78458,25.07413 -40.0738,53.4188c-10.28922,27.79958 -10.83076,28.34467 -7.58153,8.17635c1.62461,-11.99198 5.41538,-26.16431 8.12307,-31.61521c8.12307,-15.8076 1.62461,-16.35269 -15.7046,-1.63527l-16.24614,14.17233l-8.66461,-23.43886c-19.49536,-51.78353 -166.25212,-489.49062 -166.25212,-496.0317c-0.54154,-3.27054 -3.79077,-15.8076 -8.12307,-27.25449c-7.03999,-20.71341 -7.03999,-20.71341 3.24923,-11.44689c11.91383,10.9018 13.53845,3.27054 2.16615,-11.99198c-9.20614,-11.99198 -10.28922,-18.53305 -2.70769,-18.53305c8.66461,0 32.49227,39.79155 32.49227,54.50898c0.54154,12.53706 1.08308,12.53706 5.95692,3.81563c8.12307,-13.62724 2.16615,-41.42682 -12.45537,-56.68934c-6.49845,-7.08617 -9.20614,-12.53706 -5.95692,-12.53706c8.12307,0 33.57535,31.07012 43.32303,51.78353l7.58153,16.35269l-2.70769,-17.98796c-1.62461,-10.35671 -8.66461,-26.16431 -15.16306,-35.43084c-6.49845,-9.26653 -8.66461,-14.71742 -3.79077,-11.99198c23.28613,14.17233 44.4061,33.79557 51.98763,48.51299c8.12307,16.35269 8.66461,16.35269 12.99691,4.36072c5.41538,-14.71742 1.62461,-26.7094 -13.53845,-44.15227l-11.3723,-12.53706l13.53845,3.81563c16.78767,4.90581 32.49227,18.53305 32.49227,27.79958c0,3.81563 2.70769,7.63126 6.49845,8.72144c3.79077,1.63527 12.99691,24.52904 20.57844,51.23844l13.53845,48.51299l102.35066,0l102.89219,0l4.3323,-19.07814c2.70769,-10.35671 10.28922,-35.97593 16.24614,-57.23443l11.3723,-38.15628l6.49845,21.80359l7.03999,21.80359l0.54154,-17.98796c0.54154,-22.34868 8.12307,-37.06611 22.74459,-45.24245c11.3723,-5.99599 11.3723,-5.4509 -0.54154,9.81162c-15.16306,21.2585 -15.16306,45.24245 -0.54154,66.50095c6.49845,9.26653 13.53845,16.89778 15.7046,17.44287c2.16615,0 12.45537,1.09018 23.82767,1.63527c18.41229,0.54509 18.95383,0 11.91383,-9.81162c-4.3323,-5.99599 -7.58153,-16.35269 -7.58153,-22.34868c0.54154,-7.63126 2.70769,-5.4509 8.66461,8.17635c5.41538,11.99198 9.74768,16.35269 11.91383,12.53706c2.70769,-4.90581 6.49845,-2.72545 11.3723,5.4509c7.58153,11.44689 7.03999,11.44689 -2.70769,3.81563c-9.20614,-7.63126 -9.74768,-7.63126 -3.24923,1.09018c4.3323,4.90581 10.28922,8.17635 14.62152,6.54108c3.79077,-1.63527 8.66461,-0.54509 10.28922,2.18036c2.70769,4.36072 -96.93528,306.88555 -144.04907,438.79727c-10.83076,29.97994 -17.32921,37.61119 -21.66151,24.52904c-3.24923,-9.81162 -15.16306,0.54509 -15.7046,13.62724c0,11.44689 -0.54154,11.44689 -4.3323,1.09018l-4.3323,-10.9018l-2.70769,10.9018c-2.70769,9.26653 -3.24923,8.72144 -4.3323,-2.72545c-1.08308,-11.44689 -2.16615,-10.35671 -8.12307,8.17635c-4.3323,11.99198 -7.58153,17.98796 -8.12307,13.62724c-0.54154,-4.36072 -3.24923,-2.18036 -5.41538,5.4509c-4.3323,12.53706 -4.3323,12.53706 -4.87384,-4.36072c-0.54154,-9.81162 2.16615,-23.43886 5.41538,-29.97994c4.87384,-9.26653 4.87384,-10.35671 -0.54154,-5.99599c-3.24923,3.27054 -9.74768,15.8076 -14.07998,27.25449l-8.12307,21.2585l2.70769,-24.52904l2.16615,-24.52904l-7.03999,21.80359c-7.58153,23.43886 -10.28922,18.53305 -8.66461,-16.35269l0.54154,-21.80359l-8.66461,15.8076c-4.87384,8.17635 -10.28922,31.61521 -12.45537,51.78353c-3.79077,34.88575 -4.3323,35.43084 -8.12307,15.8076l0.00001,0zm50.90456,-243.11004c17.87075,-65.95586 32.49227,-124.28047 32.49227,-128.64119c0,-7.63126 -9.74768,-8.72144 -67.69223,-8.72144c-61.73532,0 -67.69223,1.09018 -67.69223,9.81162c0,9.26653 47.65533,195.14214 60.1107,234.38861c3.24923,9.81162 7.03999,17.44287 8.12307,15.8076c1.08308,-1.09018 16.78767,-56.14425 34.65842,-122.6452z" id="svg_7" stroke="null"/>
      <path d="m3317.84267,2641.89854c-12.99691,-7.63126 -26.53536,-11.99198 -29.78458,-9.81162c-2.70769,1.63527 -3.79077,1.09018 -2.16615,-2.18036c2.16615,-3.27054 -9.74768,-14.71742 -26.53536,-26.16431c-26.53536,-18.53305 -83.39683,-82.30856 -83.39683,-93.21035c0,-2.72545 7.58153,-9.26653 16.24614,-14.17233c9.74768,-5.4509 16.24614,-13.62724 16.24614,-20.71341c0,-5.99599 2.70769,-10.35671 6.49845,-9.26653c10.28922,2.18036 18.41229,-26.7094 9.74768,-37.06611c-6.49845,-7.63126 -8.12307,-7.63126 -17.87075,1.09018c-8.12307,7.63126 -11.3723,8.17635 -12.99691,2.72545c-2.16615,-5.4509 -4.3323,-5.4509 -10.28922,-0.54509c-5.95692,4.90581 -10.83076,2.18036 -24.3692,-11.44689c-15.7046,-15.26251 -16.78767,-19.07814 -13.53845,-41.42682c2.70769,-19.62323 1.62461,-23.98395 -5.95692,-23.98395c-7.03999,0 -8.12307,4.36072 -5.41538,24.52904c4.87384,35.43084 -4.87384,29.97994 -12.99691,-6.54108c-4.3323,-21.2585 -4.3323,-35.97593 -1.08308,-45.78754c3.24923,-7.63126 4.3323,-27.79958 2.70769,-44.69736l-2.16615,-31.07012l26.53536,0c53.61225,0 91.5199,-45.78754 86.64606,-104.65724c-1.62461,-16.89778 -7.03999,-38.15628 -12.45537,-47.42281c-9.74768,-16.89778 -5.95692,-31.61521 6.49845,-23.43886c5.95692,3.81563 77.98145,144.44879 77.98145,152.08005c0,6.54108 -51.98763,34.88575 -56.31994,30.52503c-1.62461,-1.63527 -3.24923,-0.54509 -3.24923,3.27054c0,4.36072 -3.24923,5.99599 -8.66461,3.81563c-4.3323,-1.63527 -6.49845,-1.09018 -4.87384,1.63527c1.62461,3.27054 -4.3323,9.81162 -13.53845,15.26251c-9.74768,5.4509 -15.16306,12.53706 -13.53845,16.89778c2.70769,7.08617 81.77222,142.26843 98.55989,168.43274c7.03999,10.9018 5.95692,12.53706 -19.49536,26.16431l-27.07689,14.71742l48.73841,73.04203c26.53536,40.33664 45.48918,73.04203 41.69842,73.04203c-3.79077,0 -17.87075,-5.99599 -30.32612,-13.62724l0.00001,0.00001z" id="svg_8" stroke="null"/>
      <path d="m3737.53451,2550.32345c-11.91383,-18.53305 -91.5199,-179.33454 -89.35375,-180.96981c1.08308,-0.54509 26.53536,-14.17233 57.40301,-29.43485c30.32612,-15.26251 55.23686,-28.88976 55.23686,-30.52503c0,-3.27054 -16.78767,-46.87772 -73.64915,-190.23633c-24.91074,-63.23041 -44.4061,-115.55903 -42.78149,-116.64921c5.95692,-5.99599 57.94455,27.25449 91.5199,58.8697c57.94455,55.05407 62.27685,59.95988 66.06762,80.67329c2.70769,14.71742 1.62461,20.71341 -5.41538,25.61922c-7.58153,5.99599 -8.12307,7.63126 -0.54154,13.62724c7.03999,5.99599 7.58153,5.4509 5.41538,-1.09018c-1.62461,-4.36072 0,-10.9018 4.3323,-14.17233c5.41538,-4.90581 9.20614,-2.72545 16.24614,8.72144c12.99691,22.89377 30.86766,92.66526 30.86766,123.19029c0,22.89377 -1.08308,25.61922 -8.12307,19.62323c-4.3323,-3.81563 -8.12307,-10.9018 -8.12307,-16.35269c0,-4.90581 -3.79077,-9.26653 -8.12307,-9.26653c-10.28922,0 -10.28922,3.27054 1.08308,15.8076c8.66461,9.81162 8.66461,11.44689 -0.54154,25.07413c-19.49536,31.07012 -27.07689,53.96389 -27.61843,88.30454c-0.54154,31.07012 -2.16615,35.97593 -12.45537,40.88173c-15.7046,7.08617 -15.16306,9.26653 4.87384,20.16832l16.24614,9.81162l-11.91383,17.44287c-14.62152,21.80359 -43.32303,53.4188 -48.73841,53.4188c-2.16615,0 -7.58153,-5.4509 -11.91383,-12.53706z" id="svg_9" stroke="null"/>
      <path d="m203.99998,2544.87256c-12.45537,-7.08617 -21.11998,-14.17233 -18.95383,-16.35269c1.62461,-2.18036 0,-3.81563 -4.3323,-3.81563c-4.3323,0 -13.53845,-1.63527 -21.11998,-3.27054c-10.83076,-2.18036 -11.91383,-1.63527 -5.41538,2.72545c9.74768,7.08617 0.54154,7.63126 -10.83076,0.54509c-8.66461,-5.4509 -3.79077,-8.17635 29.24304,-16.89778c14.62152,-3.81563 13.53845,-4.36072 -7.58153,-2.72545c-13.53845,0.54509 -29.24304,3.27054 -35.19996,4.90581c-5.95692,2.18036 -1.08308,-1.09018 10.83076,-7.08617c22.74459,-11.44689 18.95383,-14.71742 -6.49845,-5.4509c-14.62152,5.4509 -14.62152,4.90581 -4.3323,-3.27054c5.95692,-4.90581 19.49536,-12.53706 29.78458,-17.44287c16.78767,-7.63126 17.32921,-8.72144 7.03999,-10.9018c-6.49845,-1.09018 -23.28613,3.27054 -37.36611,9.26653c-14.07998,6.54108 -27.07689,10.35671 -28.70151,8.17635c-4.87384,-4.90581 16.24614,-18.53305 33.57535,-22.34868c25.45228,-5.4509 8.12307,-11.99198 -17.87075,-7.08617c-13.53845,2.18036 -25.45228,3.27054 -26.53536,2.18036c-4.3323,-4.36072 37.36611,-18.53305 54.15379,-18.53305c15.16306,0 16.24614,-1.09018 9.74768,-8.72144c-5.41538,-6.54108 -14.07998,-8.17635 -38.44919,-6.54108c-34.11689,2.72545 -35.7415,-0.54509 -5.41538,-9.81162l20.0369,-5.4509l-20.0369,-7.63126c-11.3723,-4.36072 -20.57844,-9.81162 -20.57844,-11.99198c0,-11.99198 22.74459,-47.9679 38.99073,-61.59515c23.28613,-20.16832 53.61225,-33.25048 105.59988,-46.33263c23.28613,-5.99599 48.73841,-13.62724 57.40301,-16.89778c25.99382,-10.9018 26.53536,-52.32862 1.08308,-63.7755c-19.49536,-9.26653 -74.19069,-8.17635 -127.2614,2.18036c-40.0738,7.63126 -45.48918,7.63126 -57.40301,-0.54509c-17.32921,-11.44689 -18.41229,-50.69335 -2.16615,-74.13221c14.07998,-19.62323 36.82457,-26.16431 106.14142,-30.52503c54.15379,-3.27054 54.69532,-3.27054 59.02763,9.81162l4.3323,13.08215l2.16615,-11.99198c3.24923,-17.98796 10.83076,-15.26251 17.87075,6.54108c3.24923,10.35671 8.66461,20.71341 11.91383,22.34868c3.24923,2.18036 3.24923,-0.54509 -0.54154,-7.63126c-8.66461,-16.35269 -7.58153,-33.79557 2.16615,-33.79557c5.41538,0 8.12307,5.4509 8.12307,16.35269c0,22.34868 25.45228,50.14826 47.11379,51.78353l16.78767,1.09018l-10.28922,-14.71742c-7.03999,-8.72144 -9.20614,-17.98796 -7.03999,-23.98395c3.24923,-8.72144 4.87384,-7.08617 9.74768,7.63126c3.24923,9.81162 11.91383,21.80359 19.49536,26.7094l12.99691,8.72144l-9.20614,-13.62724c-4.87384,-7.08617 -9.20614,-18.53305 -9.20614,-24.52904c0,-8.72144 2.16615,-7.63126 8.12307,5.4509c4.87384,9.26653 13.53845,19.62323 20.57844,23.98395c9.20614,5.99599 10.28922,5.99599 5.41538,0c-11.91383,-11.99198 -7.58153,-17.98796 4.3323,-7.08617c17.32921,15.26251 26.53536,41.97191 26.53536,76.31257c0,84.48892 -40.61534,125.37065 -148.38137,148.80951c-50.36302,10.9018 -65.52608,17.98796 -73.64915,33.25048c-8.12307,15.26251 -6.49845,26.16431 5.41538,38.15628c9.20614,9.26653 17.87075,10.9018 62.27685,10.9018c27.61843,0 63.35993,-2.72545 79.06453,-5.99599c33.03381,-7.08617 50.90456,-1.09018 59.02763,19.62323c11.3723,29.43485 -10.28922,68.68131 -42.23995,75.76748c-8.12307,1.63527 -48.73841,4.36072 -90.43682,5.99599c-71.483,2.72545 -76.89838,2.18036 -99.10143,-9.81162l0,0.00001z" id="svg_10" stroke="null"/>
      <path d="m1584.37998,2542.6922c-7.58153,-18.53305 -27.07689,-34.34066 -46.03072,-37.06611c-5.95692,-0.54509 -16.24614,-3.27054 -22.20305,-5.99599c-9.20614,-3.81563 -8.66461,-1.63527 4.3323,13.62724c18.41229,22.34868 20.57844,43.60718 2.16615,22.34868c-6.49845,-7.63126 -16.24614,-20.16832 -21.11998,-27.25449c-8.66461,-12.53706 -9.20614,-13.08215 -9.20614,-2.18036c-0.54154,5.99599 2.16615,13.62724 5.95692,17.44287c4.3323,4.36072 4.87384,6.54108 0.54154,6.54108c-3.24923,0 -11.3723,-6.54108 -17.87075,-14.71742c-10.83076,-14.71742 -11.3723,-14.71742 -7.58153,-2.18036l3.24923,13.08215l-16.78767,-11.99198c-46.03072,-33.25048 -70.94146,-98.11616 -70.94146,-184.78544c0,-88.30454 18.41229,-141.72334 62.81839,-180.96981c17.87075,-15.8076 21.11998,-16.89778 26.53536,-9.26653c7.58153,10.35671 18.95383,2.18036 18.95383,-13.08215c0,-14.17233 21.66151,-19.62323 30.32612,-7.63126c6.49845,8.72144 7.58153,8.17635 10.28922,-4.36072c2.70769,-9.26653 8.12307,-14.71742 20.0369,-16.89778c21.11998,-4.36072 27.61843,0.54509 24.3692,16.35269c-1.08308,7.08617 0,13.08215 2.70769,13.08215c9.74768,0 47.65533,-22.34868 47.65533,-28.34467c0,-7.08617 87.1876,-2.72545 109.39065,5.99599c17.87075,6.54108 36.82457,35.43084 36.82457,55.59916c0,8.17635 -4.3323,20.16832 -10.28922,27.25449c-9.74768,12.53706 -9.74768,12.53706 -64.44301,4.90581c-93.68605,-12.53706 -147.83984,2.18036 -168.41827,45.78754c-6.49845,12.53706 -11.3723,28.34467 -11.3723,34.88575c0,11.99198 0,11.99198 127.80293,11.99198l127.80293,0l15.7046,15.8076c12.99691,13.62724 15.7046,20.71341 15.7046,42.517c0,35.43084 -12.99691,93.75544 -25.99382,119.91975c-16.78767,32.70539 -52.52917,65.41077 -85.02144,77.40275l-29.24304,10.9018l-17.32921,-16.35269c-9.74768,-8.72144 -20.57844,-14.71742 -24.91074,-13.62724c-4.3323,1.63527 -12.99691,0.54509 -19.49536,-2.18036c-11.3723,-5.4509 -11.3723,-5.4509 0.54154,3.27054c11.91383,8.72144 16.78767,34.88575 6.49845,34.88575c-2.70769,0 -5.41538,-4.36072 -5.41538,-9.81162c0,-9.81162 -15.7046,-27.79958 -32.49227,-36.52102c-4.3323,-2.72545 -2.70769,1.63527 4.3323,9.26653c7.58153,8.72144 11.91383,19.07814 10.83076,27.25449c-1.62461,11.44689 -2.16615,11.44689 -9.20614,-4.90581l-0.00001,0.00002zm63.35993,-88.84963c20.0369,-12.53706 33.57535,-39.24646 33.57535,-68.13622l0,-19.07814l-78.52299,0c-77.98145,0 -78.52299,0 -78.52299,12.53706c0,33.25048 21.11998,69.77149 46.03072,80.1282c20.57844,8.72144 59.02763,5.99599 77.43991,-5.4509z" id="svg_11" stroke="null"/>
      <path d="m1985.118,2548.68818c-36.28304,-5.4509 -48.19687,-9.81162 -60.65224,-21.80359c-26.53536,-25.61922 -25.99382,-64.32059 0.54154,-78.49293c8.12307,-4.36072 22.74459,-3.81563 54.69532,2.72545c56.86148,10.9018 125.09525,10.9018 145.67368,0c10.83076,-5.4509 17.32921,-14.71742 21.11998,-28.88976c9.20614,-32.1603 8.66461,-33.79557 -19.49536,-33.79557c-47.65533,0 -120.2214,-10.9018 -151.08906,-22.34868c-36.82457,-14.17233 -70.94146,-43.60718 -83.93837,-73.04203c-13.53845,-29.97994 -13.53845,-95.9358 0,-125.37065c12.45537,-26.7094 40.0738,-53.96389 66.60916,-65.41077c21.66151,-8.72144 87.72913,-10.35671 82.31375,-1.63527c-4.3323,7.08617 2.70769,31.61521 9.20614,31.61521c2.70769,0 8.12307,-7.63126 10.83076,-16.35269c7.58153,-20.16832 14.62152,-20.71341 18.95383,-1.09018c4.87384,19.62323 16.78767,37.61119 28.15997,41.97191c7.58153,2.72545 7.58153,2.18036 -0.54154,-7.08617c-9.20614,-10.35671 -12.99691,-33.79557 -4.87384,-33.79557c8.12307,0 16.24614,8.72144 17.87075,19.07814c2.70769,12.53706 39.53226,39.24646 61.73532,43.60718c16.24614,3.81563 16.24614,3.81563 -2.70769,-6.54108c-27.07689,-14.17233 -27.07689,-28.88976 0.54154,-52.87371c30.32612,-26.16431 39.53226,-25.07413 13.53845,1.63527c-24.3692,25.07413 -23.82767,37.61119 2.16615,50.69335c25.99382,13.08215 38.99073,11.99198 17.87075,-1.09018c-20.0369,-11.99198 -21.11998,-15.26251 -9.74768,-30.52503c7.58153,-10.35671 7.58153,-10.35671 8.12307,1.09018c0,13.62724 19.49536,32.1603 37.90765,37.06611l13.53845,3.81563l-11.91383,-9.26653c-7.03999,-4.90581 -12.45537,-14.71742 -12.45537,-21.80359c0,-11.44689 2.16615,-10.35671 24.91074,11.99198l24.91074,25.07413l-2.16615,129.18628c-1.62461,128.64119 -1.62461,128.64119 -16.78767,160.2564c-9.20614,18.53305 -18.95383,31.07012 -23.82767,31.07012c-4.87384,0 -7.03999,1.63527 -5.41538,3.81563c2.16615,1.63527 -1.08308,7.08617 -7.58153,11.44689c-9.74768,6.54108 -12.45537,6.54108 -22.20305,-2.72545c-11.3723,-9.81162 -11.3723,-9.81162 -8.66461,4.36072c2.16615,13.08215 0,15.26251 -17.32921,20.71341c-31.95073,9.26653 -42.78149,7.63126 -46.57226,-7.63126c-4.3323,-16.35269 -12.99691,-12.53706 -12.99691,5.99599c0,11.44689 -2.16615,13.08215 -21.11998,13.08215c-15.16306,0 -23.28613,-3.27054 -29.78458,-11.99198l-9.20614,-12.53706l2.70769,12.53706c2.16615,10.9018 0,11.99198 -17.32921,11.44689c-11.3723,-0.54509 -40.61534,-4.36072 -65.52608,-8.17635l-0.00002,0zm163.54443,-270.90962c-2.70769,-45.78754 -25.99382,-74.6773 -69.85838,-84.48892c-43.32303,-9.81162 -72.56607,10.35671 -72.56607,49.05808c0,41.42682 39.53226,64.86568 105.59988,62.68532l37.90765,-1.09018l-1.08308,-26.16431l0,0.00001z" id="svg_12" stroke="null"/>
      <path d="m2615.46807,2539.96675c-5.95692,-9.26653 -14.07998,-18.53305 -17.87075,-19.62323c-5.41538,-1.63527 -4.87384,1.63527 1.62461,11.99198c15.7046,23.98395 -3.24923,17.98796 -40.0738,-13.08215c-18.41229,-15.26251 -33.03381,-25.07413 -33.03381,-21.80359c0,3.81563 -7.58153,4.90581 -20.0369,3.27054l-20.57844,-3.27054l17.32921,5.4509c9.74768,3.27054 18.95383,8.17635 20.57844,10.9018c4.87384,7.63126 -3.79077,6.54108 -25.99382,-2.72545c-10.83076,-4.36072 -23.82767,-8.17635 -29.24304,-7.63126c-7.58153,0 -8.12307,1.09018 -1.62461,3.27054c4.3323,1.63527 12.45537,6.54108 17.32921,11.44689c7.58153,6.54108 8.12307,10.35671 3.24923,19.07814l-5.95692,11.44689l-4.3323,-11.44689c-5.41538,-14.17233 -23.28613,-26.7094 -45.48918,-31.61521l-16.24614,-3.27054l15.16306,8.72144c10.28922,5.99599 14.62152,13.08215 14.62152,23.43886l0,14.71742l-12.45537,-14.71742c-6.49845,-7.63126 -17.87075,-17.44287 -25.45228,-21.2585c-12.45537,-6.54108 -12.99691,-7.08617 -2.70769,-10.9018c9.20614,-3.27054 9.20614,-4.36072 1.62461,-4.36072c-9.20614,-0.54509 -9.74768,-11.99198 -9.74768,-165.1622c0,-163.52693 0,-164.07202 10.83076,-154.26041c14.07998,12.53706 15.16306,0 1.62461,-15.26251c-9.20614,-10.35671 -9.20614,-10.35671 3.79077,-6.54108c7.58153,1.63527 20.0369,8.17635 28.70151,14.17233l14.62152,10.9018l0,-11.99198c0,-6.54108 -8.66461,-20.16832 -19.49536,-29.97994c-10.28922,-10.35671 -17.87075,-18.53305 -15.7046,-18.53305c6.49845,0 27.07689,12.53706 39.53226,23.43886c6.49845,5.99599 11.91383,8.72144 11.91383,5.99599c0,-9.26653 -12.45537,-22.34868 -32.49227,-34.34066c-27.07689,-16.35269 -5.95692,-14.71742 25.99382,1.63527c30.32612,15.26251 43.32303,28.88976 49.27995,50.14826l3.79077,15.8076l5.95692,-16.89778c7.58153,-21.80359 0,-38.15628 -24.91074,-55.05407c-21.66151,-14.71742 -18.95383,-15.8076 7.58153,-3.27054c14.07998,6.54108 20.57844,14.17233 24.3692,28.34467c2.70769,10.9018 5.41538,78.49293 5.41538,150.98987c0,138.4528 0,138.4528 27.07689,156.98586c15.7046,10.35671 48.19687,11.44689 61.19378,2.18036c14.07998,-10.9018 20.0369,-61.05006 20.0369,-175.51891c0,-88.30454 1.08308,-104.65724 9.20614,-113.37867c7.03999,-8.17635 7.58153,-12.53706 2.70769,-23.43886c-4.87384,-10.35671 -4.3323,-14.71742 2.16615,-21.80359c11.3723,-10.9018 27.61843,-2.18036 37.36611,20.71341l7.03999,17.44287l5.95692,-15.8076c3.79077,-8.72144 4.87384,-20.16832 3.24923,-25.61922c-2.70769,-8.72144 -0.54154,-10.35671 11.91383,-10.35671c21.11998,0 39.53226,14.17233 39.53226,30.52503c0,7.08617 2.70769,13.08215 5.41538,13.08215c3.24923,0 5.41538,49.05808 5.41538,136.81754l0,137.36262l19.49536,17.98796c22.74459,21.80359 52.52917,25.07413 73.10761,8.17635c12.99691,-10.35671 12.99691,-10.9018 15.7046,-164.07202l2.70769,-153.71532l15.16306,-13.08215c12.99691,-10.9018 21.11998,-13.08215 50.36302,-13.08215c31.95073,0 36.82457,1.63527 51.98763,16.35269l16.24614,16.35269l-2.16615,162.43675c-2.16615,137.90771 -3.79077,165.70729 -11.91383,187.51088c-31.95073,86.66928 -150.00599,101.3867 -229.07051,29.43485l-21.66151,-19.07814l-15.7046,21.2585c-8.66461,11.99198 -25.99382,26.7094 -38.99073,33.25048l-23.28613,11.44689l-12.45537,-11.44689c-12.45537,-11.99198 -12.45537,-11.99198 -15.7046,-1.09018c-4.3323,16.89778 -21.11998,13.62724 -33.57535,-5.99599l0,-0.00001z" id="svg_13" stroke="null"/>
      <path d="m1012.516,2532.88058l-13.53845,-13.08215l0,-192.41669c0,-169.52292 1.08308,-194.05196 8.66461,-205.49885l9.20614,-12.53706l12.99691,15.26251c9.74768,11.99198 11.3723,12.53706 7.58153,3.81563c-9.20614,-18.53305 -7.03999,-28.88976 5.41538,-28.88976c8.12307,0 10.28922,2.72545 8.12307,8.17635c-3.79077,10.9018 22.20305,40.88173 43.86457,49.60317c25.45228,10.9018 29.24304,8.72144 5.95692,-3.81563c-23.28613,-11.99198 -25.99382,-24.52904 -10.28922,-43.60718c13.53845,-16.89778 19.49536,-10.9018 9.20614,8.72144c-9.74768,19.07814 -8.12307,21.80359 18.41229,35.43084l20.57844,10.9018l2.16615,85.5791c1.62461,83.39874 2.16615,87.21437 17.87075,115.01394c23.28613,43.60718 66.60916,69.2264 133.75985,80.1282c24.3692,3.81563 42.23995,24.52904 42.23995,49.60317c0,32.70539 -11.91383,46.87772 -19.49536,22.89377c-3.24923,-11.44689 -3.79077,-11.44689 -10.83076,-1.63527c-4.3323,5.4509 -6.49845,14.71742 -4.3323,20.16832c4.87384,15.26251 -21.66151,13.08215 -29.24304,-2.18036c-4.3323,-9.81162 -5.95692,-10.35671 -5.95692,-2.72545c-0.54154,11.99198 -19.49536,11.99198 -31.95073,-0.54509c-4.87384,-4.90581 -12.99691,-8.72144 -17.87075,-7.63126c-9.74768,1.63527 -63.35993,-38.70137 -68.23377,-51.23844c-5.95692,-16.35269 -12.45537,-6.54108 -12.45537,19.07814c0,18.53305 -3.24923,30.52503 -11.3723,40.88173c-10.28922,13.08215 -14.07998,14.17233 -54.15379,14.17233c-38.44919,0 -44.4061,-1.63527 -56.31994,-13.62724l0,-0.00001z" id="svg_14" stroke="null"/>
      <path d="m3142.38441,2231.44593c-10.28922,-2.18036 -11.3723,-8.17635 -4.87384,-25.61922c3.24923,-8.72144 4.87384,-7.63126 7.58153,8.17635c6.49845,30.52503 17.32921,10.9018 16.24614,-28.88976c-0.54154,-31.07012 0.54154,-35.97593 18.95383,-61.05006l19.49536,-27.25449l9.74768,21.80359c11.3723,26.16431 12.45537,46.33263 2.16615,69.77149c-12.45537,29.43485 -43.86457,49.05808 -69.31685,43.06209l0,0.00001z" id="svg_15" stroke="null"/>
    </g>
    <g transform="translate(0 275) scale(0.1 -0.1)" fill="#000000" id="svg_30" stroke="null">
      <path d="M 611.59 2712.754 C 585.096 2707.731 579.689 2692.663 576.986 2616.765 L 574.283 2546.447 L 543.464 2544.772 C 516.97 2543.098 511.023 2540.866 498.587 2526.356 C 483.989 2507.939 481.826 2495.661 491.018 2475.013 C 499.128 2456.596 514.267 2449.341 547.248 2447.667 L 574.283 2445.992 L 577.527 2320.425 C 580.23 2200.438 584.015 2169.743 599.695 2150.211 C 601.857 2147.42 608.886 2138.491 614.834 2130.678 C 624.025 2118.958 626.188 2117.842 631.054 2125.097 C 634.298 2130.12 636.461 2130.678 636.461 2126.771 C 636.461 2116.168 652.681 2102.774 664.576 2102.774 C 673.768 2102.774 674.849 2105.006 672.146 2116.726 C 667.28 2135.701 677.012 2134.585 697.017 2113.936 C 712.156 2098.309 715.4 2097.193 755.952 2097.193 C 818.671 2097.193 841.379 2113.378 841.92 2156.908 C 841.92 2189.276 822.455 2205.461 789.474 2200.438 C 777.038 2198.764 757.033 2199.88 745.138 2203.228 C 726.214 2208.251 722.429 2212.157 717.563 2231.132 C 714.319 2243.41 712.697 2294.195 713.238 2349.445 L 714.86 2445.992 L 773.253 2448.783 C 826.781 2451.573 833.269 2452.689 842.461 2464.967 C 855.437 2481.71 855.437 2509.055 841.92 2526.914 C 832.728 2539.75 827.862 2540.866 773.253 2543.656 L 714.86 2546.447 L 712.156 2616.207 C 710.534 2654.714 707.29 2689.315 704.587 2693.779 C 693.773 2711.638 649.437 2720.567 611.59 2712.754 L 611.59 2712.754 Z" id="svg_16" stroke="null" style="fill: url(#gradient-3);"/>
      <path d="M 3383.664 2693.779 C 3370.688 2690.989 3359.333 2688.199 3358.793 2687.641 C 3351.223 2679.269 3308.509 2574.351 3310.672 2571.002 C 3312.294 2568.212 3323.108 2560.957 3335.003 2554.818 C 3346.357 2548.679 3356.089 2542.54 3356.089 2541.424 C 3356.089 2540.308 3336.625 2497.336 3312.835 2445.992 C 3289.045 2394.649 3269.58 2351.677 3269.58 2351.119 C 3269.58 2350.003 3290.126 2337.725 3314.997 2323.773 C 3366.362 2294.753 3364.74 2298.66 3342.572 2242.294 C 3323.648 2195.415 3264.173 2025.759 3264.173 2019.062 C 3264.173 2014.598 3302.562 1991.158 3309.591 1991.158 C 3311.213 1991.158 3312.835 2000.646 3313.916 2012.365 L 3315.538 2033.014 L 3326.352 2015.156 C 3331.759 2005.11 3338.247 1996.739 3339.869 1996.739 C 3341.491 1996.739 3365.822 2054.779 3393.396 2125.655 L 3444.22 2254.013 L 3409.617 2290.847 C 3364.2 2339.399 3361.496 2342.748 3361.496 2348.329 C 3361.496 2350.561 3373.391 2379.023 3387.99 2411.392 C 3405.832 2451.015 3412.861 2471.106 3408.535 2473.338 C 3404.751 2475.013 3405.291 2476.129 3410.157 2476.687 C 3417.186 2477.245 3464.226 2572.118 3464.226 2586.07 C 3464.226 2589.419 3455.575 2600.022 3445.842 2610.068 L 3426.919 2629.042 L 3439.895 2655.83 C 3449.627 2674.805 3451.249 2683.176 3446.383 2684.85 C 3442.598 2686.524 3443.68 2688.199 3449.627 2688.199 C 3454.493 2688.757 3458.819 2691.547 3458.819 2694.338 C 3458.819 2701.035 3417.186 2700.476 3383.664 2693.779 L 3383.664 2693.779 Z" id="svg_17" stroke="null" style="fill: rgb(9, 174, 0);"/>
      <path d="M 3491.26 2690.989 C 3491.26 2687.083 3502.073 2674.805 3515.59 2663.643 L 3539.38 2642.994 L 3523.701 2610.068 C 3514.509 2592.209 3507.48 2571.002 3507.48 2563.189 C 3507.48 2554.818 3505.317 2549.795 3503.155 2551.469 C 3498.829 2553.702 3425.837 2402.462 3426.378 2392.417 C 3426.378 2390.185 3445.302 2372.884 3468.551 2353.909 C 3491.26 2334.377 3511.806 2317.076 3514.509 2314.844 C 3516.672 2313.17 3490.719 2235.039 3456.656 2141.281 C 3413.402 2022.969 3396.64 1970.509 3400.966 1967.719 C 3409.076 1962.696 3478.283 1962.138 3501.533 1966.603 C 3516.131 1969.951 3518.834 1972.742 3516.131 1982.229 C 3515.05 1988.926 3511.806 2010.133 3509.643 2030.224 L 3506.399 2066.499 L 3524.782 2048.082 L 3543.706 2029.666 L 3585.879 2129.004 C 3609.128 2183.695 3631.296 2236.155 3635.081 2245.642 L 3642.11 2262.943 L 3589.123 2300.334 L 3535.596 2338.283 L 3589.664 2445.992 L 3643.191 2554.26 L 3618.32 2571.56 L 3593.449 2589.419 L 3609.669 2619.555 C 3625.889 2648.017 3625.889 2649.691 3616.157 2655.272 C 3610.21 2658.062 3600.477 2660.853 3594.53 2660.853 C 3588.582 2660.853 3582.094 2663.643 3579.931 2666.992 C 3570.74 2682.618 3491.26 2704.383 3491.26 2690.989 L 3491.26 2690.989 Z" id="svg_18" stroke="null" style="fill: rgb(34, 134, 1);"/>
      <path d="M 4505.578 2683.734 C 4485.573 2680.944 4475.3 2675.363 4463.946 2661.969 L 4448.266 2644.11 L 4448.266 2349.445 C 4448.266 2067.057 4448.807 2054.779 4459.08 2037.479 C 4465.027 2026.875 4475.841 2017.946 4484.492 2015.714 C 4492.602 2014.04 4502.875 2011.249 4507.2 2010.133 C 4511.526 2008.459 4516.933 2010.691 4519.095 2014.04 C 4521.799 2019.062 4527.206 2019.062 4540.723 2014.04 C 4569.919 2003.436 4642.371 2000.646 4696.98 2007.343 C 4768.89 2016.83 4795.384 2024.085 4798.628 2036.921 C 4801.331 2047.524 4810.523 2050.873 4810.523 2041.385 C 4810.523 2029.666 4820.796 2036.921 4826.203 2052.547 C 4832.15 2071.522 4838.098 2075.428 4833.772 2058.128 C 4829.987 2044.176 4841.342 2043.06 4845.126 2057.012 C 4847.289 2063.15 4854.859 2073.754 4862.969 2081.009 L 4877.027 2094.403 L 4870.538 2081.567 C 4866.754 2074.312 4865.132 2067.057 4866.213 2065.383 C 4869.457 2062.034 4883.515 2087.148 4881.893 2092.729 C 4881.352 2094.961 4884.596 2095.519 4889.462 2093.287 C 4900.276 2089.38 4932.717 2125.097 4952.722 2162.488 C 4978.134 2211.599 4990.029 2269.64 4990.57 2351.119 C 4991.11 2433.157 4983.541 2471.664 4956.507 2527.472 C 4923.525 2594.441 4865.132 2643.552 4786.733 2670.34 C 4746.182 2683.734 4734.827 2685.408 4637.505 2686.524 C 4579.652 2687.083 4520.177 2685.966 4505.578 2683.734 L 4505.578 2683.734 Z M 4705.09 2565.421 C 4780.785 2550.911 4822.418 2506.265 4837.016 2423.669 C 4853.237 2333.819 4834.853 2224.993 4795.924 2177.557 C 4790.518 2170.86 4767.268 2152.443 4744.019 2135.701 C 4702.386 2106.123 4700.224 2105.564 4655.347 2102.774 C 4630.476 2101.1 4605.604 2101.658 4600.738 2103.332 C 4595.331 2105.564 4578.57 2119.516 4562.35 2135.143 L 4533.153 2163.605 L 4536.938 2209.925 C 4539.101 2235.597 4542.885 2258.478 4545.589 2261.268 C 4555.862 2271.872 4561.809 2256.246 4561.809 2218.854 C 4561.809 2187.044 4563.431 2180.347 4569.379 2182.579 C 4574.245 2184.812 4578.57 2181.463 4580.733 2174.766 C 4584.518 2163.605 4584.518 2163.605 4592.628 2175.324 C 4600.198 2186.486 4600.198 2188.16 4592.628 2192.625 C 4586.681 2196.531 4585.059 2202.67 4587.221 2216.622 C 4589.925 2235.597 4580.192 2262.385 4565.053 2275.22 C 4560.728 2279.127 4545.048 2283.592 4530.99 2284.708 C 4488.817 2289.172 4463.405 2324.889 4494.224 2337.167 C 4501.794 2339.958 4507.741 2346.654 4507.741 2352.235 C 4507.741 2360.606 4506.66 2361.165 4502.334 2353.909 C 4492.602 2339.399 4486.114 2358.932 4486.114 2401.346 C 4486.114 2459.386 4502.334 2492.313 4546.129 2521.333 C 4564.513 2533.611 4582.896 2543.656 4586.681 2543.656 C 4590.465 2543.656 4596.413 2548.679 4599.657 2554.26 C 4608.308 2571.56 4651.022 2576.025 4705.09 2565.421 L 4705.09 2565.421 Z" id="svg_19" stroke="null" style="fill: rgb(237, 99, 19); opacity: 0.93;"/>
      <path d="M 3855.828 2665.287 C 3849.34 2660.822 3843.933 2651.334 3843.933 2644.637 C 3843.933 2637.941 3876.915 2568.181 3916.925 2490.05 C 3956.936 2411.919 3989.917 2345.507 3989.917 2342.717 C 3989.917 2337.694 3955.313 2269.051 3881.24 2126.741 C 3857.45 2082.095 3838.526 2040.796 3838.526 2034.099 C 3838.526 2012.335 3854.747 2004.521 3900.705 2004.521 C 3933.146 2004.521 3945.581 2006.754 3953.691 2014.009 C 3959.639 2019.59 3962.883 2020.706 3960.72 2017.357 C 3953.691 2004.521 3970.994 2009.544 3988.835 2025.729 C 4001.812 2036.89 4016.411 2065.91 4048.851 2144.041 C 4072.1 2200.965 4093.728 2246.727 4095.891 2246.727 C 4098.594 2246.169 4118.059 2204.314 4138.604 2152.97 C 4165.638 2086.559 4178.615 2061.446 4184.022 2063.12 C 4189.969 2065.352 4189.969 2064.236 4185.103 2058.097 C 4180.237 2051.958 4180.237 2049.168 4185.103 2045.819 C 4188.888 2043.587 4195.376 2047.493 4201.324 2055.307 C 4213.759 2072.049 4215.382 2057.539 4202.945 2039.122 C 4192.673 2023.496 4200.243 2023.496 4219.166 2038.564 C 4234.306 2050.842 4236.468 2049.168 4227.817 2031.868 C 4220.248 2017.357 4227.817 2018.474 4251.607 2035.215 C 4272.694 2050.284 4275.396 2046.377 4262.961 2021.264 C 4256.473 2007.87 4255.932 2004.521 4261.88 2004.521 C 4265.665 2004.521 4271.612 2007.312 4275.396 2011.218 C 4280.263 2016.241 4281.885 2016.241 4281.885 2011.218 C 4281.885 2002.847 4307.297 2002.289 4312.163 2011.218 C 4314.326 2014.567 4317.57 2025.171 4319.733 2034.657 L 4323.517 2051.958 L 4327.843 2028.519 C 4331.087 2007.87 4333.25 2005.638 4341.901 2010.102 C 4347.308 2013.451 4353.255 2020.706 4354.877 2026.845 C 4358.121 2038.006 4352.714 2049.726 4244.578 2260.68 C 4223.492 2301.419 4206.19 2338.81 4206.19 2343.833 C 4206.19 2348.298 4239.171 2415.267 4279.182 2492.84 C 4319.192 2570.413 4352.174 2637.941 4352.174 2642.963 C 4352.174 2647.986 4347.308 2656.915 4341.36 2663.054 C 4332.709 2671.984 4323.517 2674.216 4291.618 2674.216 C 4241.875 2674.216 4217.544 2666.961 4199.701 2647.986 C 4191.591 2639.057 4166.72 2587.714 4143.47 2533.022 C 4120.221 2478.889 4099.676 2435.917 4097.512 2438.148 C 4095.35 2440.939 4074.804 2486.702 4052.095 2540.277 C 4029.387 2593.852 4007.759 2641.289 4004.515 2645.754 C 3982.888 2672.542 3883.943 2685.378 3855.828 2665.287 L 3855.828 2665.287 Z" id="svg_20" stroke="null" style="fill: rgb(237, 99, 19); filter: url(#drop-shadow-filter-0); opacity: 0.96;"/>
      <path d="M 5294.973 2665.317 C 5292.27 2653.598 5292.27 2635.181 5293.892 2624.578 C 5296.055 2613.974 5296.595 2605.045 5294.973 2605.045 C 5289.026 2605.045 5279.834 2629.6 5275.509 2654.714 L 5271.183 2680.386 L 5270.643 2649.691 C 5270.643 2631.833 5273.887 2612.3 5278.212 2602.813 C 5283.078 2593.883 5285.241 2585.512 5283.619 2583.838 C 5277.131 2577.141 5253.882 2609.51 5243.609 2638.53 C 5233.336 2666.992 5232.795 2667.55 5236.039 2646.901 C 5237.661 2634.623 5241.446 2620.113 5244.149 2614.532 C 5252.26 2598.348 5245.771 2597.79 5228.47 2612.858 L 5212.249 2627.368 L 5203.598 2603.371 C 5184.134 2550.353 5037.609 2102.216 5037.609 2095.519 C 5037.068 2092.171 5033.824 2079.335 5029.499 2067.615 C 5022.47 2046.408 5022.47 2046.408 5032.743 2055.895 C 5044.638 2067.057 5046.26 2059.244 5034.906 2043.618 C 5025.714 2031.34 5024.633 2024.643 5032.202 2024.643 C 5040.853 2024.643 5064.643 2065.383 5064.643 2080.451 C 5065.184 2093.287 5065.724 2093.287 5070.591 2084.357 C 5078.701 2070.405 5072.753 2041.943 5058.155 2026.317 C 5051.667 2019.062 5048.963 2013.481 5052.207 2013.481 C 5060.318 2013.481 5085.73 2045.292 5095.462 2066.499 L 5103.031 2083.241 L 5100.328 2064.825 C 5098.706 2054.221 5091.677 2038.037 5085.189 2028.55 C 5078.701 2019.062 5076.538 2013.481 5081.404 2016.272 C 5104.654 2030.782 5125.74 2050.873 5133.31 2065.941 C 5141.42 2082.683 5141.961 2082.683 5146.286 2070.405 C 5151.693 2055.337 5147.908 2043.06 5132.769 2025.201 L 5121.415 2012.365 L 5134.932 2016.272 C 5151.693 2021.295 5167.373 2035.246 5167.373 2044.734 C 5167.373 2048.64 5170.076 2052.547 5173.861 2053.663 C 5177.646 2055.337 5186.837 2078.777 5194.407 2106.123 L 5207.924 2155.792 L 5310.113 2155.792 L 5412.842 2155.792 L 5417.167 2136.259 C 5419.871 2125.655 5427.44 2099.426 5433.388 2077.66 L 5444.742 2038.595 L 5451.23 2060.918 L 5458.259 2083.241 L 5458.8 2064.825 C 5459.341 2041.943 5466.91 2026.875 5481.509 2018.504 C 5492.863 2012.365 5492.863 2012.923 5480.968 2028.55 C 5465.829 2050.315 5465.829 2074.87 5480.427 2096.635 C 5486.915 2106.123 5493.944 2113.936 5496.107 2114.494 C 5498.27 2114.494 5508.543 2115.61 5519.897 2116.168 C 5538.28 2116.726 5538.821 2116.168 5531.792 2106.123 C 5527.467 2099.984 5524.222 2089.38 5524.222 2083.241 C 5524.763 2075.428 5526.926 2077.66 5532.873 2091.612 C 5538.28 2103.89 5542.606 2108.355 5544.768 2104.448 C 5547.472 2099.426 5551.257 2101.658 5556.123 2110.029 C 5563.692 2121.749 5563.152 2121.749 5553.419 2113.936 C 5544.228 2106.123 5543.687 2106.123 5550.175 2115.052 C 5554.501 2120.074 5560.448 2123.423 5564.774 2121.749 C 5568.558 2120.074 5573.424 2121.191 5575.047 2123.981 C 5577.75 2128.446 5478.265 2438.179 5431.225 2573.234 C 5420.412 2603.929 5413.923 2611.742 5409.598 2598.348 C 5406.354 2588.303 5394.459 2598.906 5393.918 2612.3 C 5393.918 2624.02 5393.377 2624.02 5389.593 2613.416 L 5385.267 2602.255 L 5382.564 2613.416 C 5379.86 2622.903 5379.32 2622.345 5378.238 2610.626 C 5377.157 2598.906 5376.076 2600.022 5370.128 2618.997 C 5365.803 2631.275 5362.559 2637.414 5362.018 2632.949 C 5361.477 2628.484 5358.774 2630.717 5356.611 2638.53 C 5352.286 2651.365 5352.286 2651.365 5351.745 2634.065 C 5351.204 2624.02 5353.908 2610.068 5357.152 2603.371 C 5362.018 2593.883 5362.018 2592.767 5356.611 2597.232 C 5353.367 2600.58 5346.879 2613.416 5342.553 2625.136 L 5334.443 2646.901 L 5337.147 2621.787 L 5339.309 2596.674 L 5332.28 2618.997 C 5324.711 2642.994 5322.008 2637.972 5323.63 2602.255 L 5324.17 2579.931 L 5315.519 2596.116 C 5310.653 2604.487 5305.246 2628.484 5303.084 2649.133 C 5299.299 2684.85 5298.758 2685.408 5294.973 2665.317 L 5294.973 2665.317 Z M 5345.798 2416.414 C 5363.64 2348.887 5378.238 2289.172 5378.238 2284.708 C 5378.238 2276.895 5368.506 2275.778 5310.653 2275.778 C 5249.016 2275.778 5243.068 2276.895 5243.068 2285.824 C 5243.068 2295.311 5290.648 2485.616 5303.084 2525.798 C 5306.328 2535.843 5310.113 2543.656 5311.194 2541.982 C 5312.275 2540.866 5327.955 2484.5 5345.798 2416.414 Z" id="svg_21" stroke="null" style="paint-order: fill; fill: rgb(237, 99, 19); opacity: 0.96;"/>
      <path d="M 3281.475 2658.062 C 3268.499 2650.249 3254.982 2645.785 3251.738 2648.017 C 3249.034 2649.691 3247.953 2649.133 3249.575 2645.785 C 3251.738 2642.436 3239.843 2630.717 3223.082 2618.997 C 3196.588 2600.022 3139.817 2534.727 3139.817 2523.565 C 3139.817 2520.775 3147.386 2514.078 3156.037 2509.055 C 3165.769 2503.475 3172.258 2495.103 3172.258 2487.848 C 3172.258 2481.71 3174.961 2477.245 3178.746 2478.361 C 3189.019 2480.593 3197.129 2451.015 3188.478 2440.412 C 3181.99 2432.599 3180.368 2432.599 3170.636 2441.528 C 3162.525 2449.341 3159.281 2449.899 3157.659 2444.318 C 3155.496 2438.737 3153.334 2438.737 3147.386 2443.76 C 3141.439 2448.783 3136.573 2445.992 3123.056 2432.041 C 3107.376 2416.414 3106.294 2412.508 3109.538 2389.627 C 3112.242 2369.536 3111.161 2365.071 3103.591 2365.071 C 3096.562 2365.071 3095.481 2369.536 3098.184 2390.185 C 3103.05 2426.46 3093.318 2420.879 3085.208 2383.488 C 3080.882 2361.723 3080.882 2346.654 3084.126 2336.609 C 3087.371 2328.796 3088.452 2308.147 3086.83 2290.847 L 3084.667 2259.036 L 3111.161 2259.036 C 3164.688 2259.036 3202.536 2212.157 3197.67 2151.885 C 3196.048 2134.585 3190.641 2112.819 3185.234 2103.332 C 3175.502 2086.032 3179.286 2070.964 3191.722 2079.335 C 3197.67 2083.241 3269.58 2227.226 3269.58 2235.039 C 3269.58 2241.736 3217.675 2270.756 3213.349 2266.291 C 3211.727 2264.617 3210.105 2265.733 3210.105 2269.64 C 3210.105 2274.104 3206.861 2275.778 3201.454 2273.546 C 3197.129 2271.872 3194.966 2272.43 3196.588 2275.22 C 3198.21 2278.569 3192.263 2285.266 3183.071 2290.847 C 3173.339 2296.427 3167.932 2303.682 3169.554 2308.147 C 3172.258 2315.402 3251.197 2453.806 3267.958 2480.593 C 3274.987 2491.755 3273.906 2493.429 3248.494 2507.381 L 3221.46 2522.449 L 3270.121 2597.232 C 3296.614 2638.53 3315.538 2672.014 3311.753 2672.014 C 3307.969 2672.014 3293.911 2665.876 3281.475 2658.062 L 3281.475 2658.062 Z" id="svg_22" stroke="null" style="fill: rgb(72, 235, 27);"/>
      <path d="M 3700.503 2564.305 C 3688.608 2545.33 3609.128 2380.697 3611.291 2379.023 C 3612.372 2378.465 3637.784 2364.513 3668.603 2348.887 C 3698.881 2333.261 3723.753 2319.309 3723.753 2317.634 C 3723.753 2314.286 3706.992 2269.64 3650.22 2122.865 C 3625.349 2058.128 3605.884 2004.552 3607.506 2003.436 C 3613.454 1997.297 3665.359 2031.34 3698.881 2063.709 C 3756.734 2120.074 3761.06 2125.097 3764.845 2146.304 C 3767.548 2161.372 3766.467 2167.511 3759.438 2172.534 C 3751.868 2178.673 3751.328 2180.347 3758.897 2186.486 C 3765.926 2192.625 3766.467 2192.067 3764.304 2185.37 C 3762.682 2180.905 3764.304 2174.208 3768.629 2170.86 C 3774.036 2165.837 3777.821 2168.069 3784.85 2179.789 C 3797.826 2203.228 3815.669 2274.662 3815.669 2305.915 C 3815.669 2329.354 3814.587 2332.144 3807.558 2326.006 C 3803.233 2322.099 3799.448 2314.844 3799.448 2309.263 C 3799.448 2304.24 3795.663 2299.776 3791.338 2299.776 C 3781.065 2299.776 3781.065 2303.124 3792.419 2315.96 C 3801.07 2326.006 3801.07 2327.68 3791.879 2341.632 C 3772.414 2373.442 3764.845 2396.882 3764.304 2432.041 C 3763.763 2463.851 3762.141 2468.874 3751.868 2473.896 C 3736.188 2481.151 3736.729 2483.384 3756.734 2494.545 L 3772.955 2504.591 L 3761.06 2522.449 C 3746.461 2544.772 3717.805 2577.141 3712.398 2577.141 C 3710.236 2577.141 3704.829 2571.56 3700.503 2564.305 Z" id="svg_23" stroke="null" style="fill: rgb(5, 95, 0);"/>
      <path d="M 172.556 2558.724 C 160.12 2551.469 151.47 2544.214 153.632 2541.982 C 155.254 2539.75 153.632 2538.075 149.307 2538.075 C 144.981 2538.075 135.79 2536.401 128.22 2534.727 C 117.407 2532.495 116.325 2533.053 122.813 2537.517 C 132.546 2544.772 123.354 2545.331 112 2538.075 C 103.349 2532.495 108.215 2529.704 141.197 2520.775 C 155.795 2516.868 154.714 2516.31 133.627 2517.985 C 120.11 2518.543 104.43 2521.333 98.483 2523.007 C 92.535 2525.24 97.401 2521.891 109.296 2515.752 C 132.005 2504.033 128.22 2500.684 102.808 2510.172 C 88.21 2515.752 88.21 2515.194 98.483 2506.823 C 104.43 2501.8 117.947 2493.987 128.22 2488.965 C 144.981 2481.151 145.522 2480.035 135.249 2477.803 C 128.761 2476.687 112 2481.151 97.942 2487.29 C 83.884 2493.987 70.908 2497.894 69.286 2495.661 C 64.42 2490.639 85.506 2476.687 102.808 2472.78 C 128.22 2467.199 110.918 2460.503 84.966 2465.525 C 71.449 2467.758 59.554 2468.874 58.472 2467.758 C 54.147 2463.293 95.779 2448.783 112.54 2448.783 C 127.68 2448.783 128.761 2447.667 122.273 2439.854 C 116.866 2433.157 108.215 2431.482 83.884 2433.157 C 49.821 2435.947 48.199 2432.599 78.478 2423.111 L 98.483 2417.53 L 78.478 2409.717 C 67.123 2405.253 57.932 2399.672 57.932 2397.44 C 57.932 2385.162 80.64 2348.329 96.861 2334.377 C 120.11 2313.728 150.388 2300.334 202.294 2286.94 C 225.543 2280.801 250.955 2272.988 259.606 2269.64 C 285.559 2258.478 286.099 2216.064 260.687 2204.344 C 241.223 2194.857 186.614 2195.973 133.627 2206.577 C 93.617 2214.39 88.21 2214.39 76.315 2206.019 C 59.013 2194.299 57.932 2154.117 74.152 2130.12 C 88.21 2110.029 110.918 2103.332 180.126 2098.867 C 234.194 2095.519 234.734 2095.519 239.06 2108.913 L 243.385 2122.307 L 245.548 2110.029 C 248.792 2091.612 256.362 2094.403 263.391 2116.726 C 266.635 2127.329 272.042 2137.933 275.286 2139.607 C 278.53 2141.84 278.53 2139.049 274.745 2131.794 C 266.094 2115.052 267.175 2097.193 276.908 2097.193 C 282.314 2097.193 285.018 2102.774 285.018 2113.936 C 285.018 2136.817 310.43 2165.279 332.057 2166.953 L 348.818 2168.069 L 338.545 2153.001 C 331.516 2144.072 329.354 2134.585 331.516 2128.446 C 334.761 2119.516 336.383 2121.191 341.249 2136.259 C 344.493 2146.304 353.144 2158.582 360.713 2163.605 L 373.69 2172.534 L 364.498 2158.582 C 359.632 2151.327 355.306 2139.607 355.306 2133.468 C 355.306 2124.539 357.469 2125.655 363.417 2139.049 C 368.283 2148.536 376.934 2159.14 383.963 2163.605 C 393.154 2169.743 394.236 2169.743 389.369 2163.605 C 377.474 2151.327 381.8 2145.188 393.695 2156.35 C 410.997 2171.976 420.188 2199.322 420.188 2234.481 C 420.188 2320.983 379.637 2362.839 272.042 2386.836 C 221.758 2397.998 206.619 2405.253 198.509 2420.879 C 190.399 2436.505 192.021 2447.667 203.916 2459.944 C 213.107 2469.432 221.758 2471.106 266.094 2471.106 C 293.669 2471.106 329.354 2468.316 345.034 2464.967 C 378.015 2457.712 395.858 2463.851 403.968 2485.058 C 415.322 2515.194 393.695 2555.376 361.795 2562.631 C 353.684 2564.305 313.133 2567.096 271.501 2568.77 C 200.131 2571.56 194.724 2571.002 172.556 2558.724 L 172.556 2558.724 Z" id="svg_24" stroke="null" style="fill: url(#gradient-5); fill-rule: evenodd; fill-opacity: 0.94; paint-order: fill;"/>
      <path d="M 1550.753 2556.492 C 1543.184 2537.517 1523.719 2521.333 1504.796 2518.543 C 1498.848 2517.985 1488.575 2515.194 1482.628 2512.404 C 1473.436 2508.497 1473.977 2510.73 1486.953 2526.356 C 1505.336 2549.237 1507.499 2571.002 1489.116 2549.237 C 1482.628 2541.424 1472.895 2528.588 1468.029 2521.333 C 1459.378 2508.497 1458.838 2507.939 1458.838 2519.101 C 1458.297 2525.24 1461 2533.053 1464.785 2536.959 C 1469.111 2541.424 1469.651 2543.656 1465.326 2543.656 C 1462.082 2543.656 1453.971 2536.959 1447.483 2528.588 C 1436.67 2513.52 1436.129 2513.52 1439.914 2526.356 L 1443.158 2539.75 L 1426.397 2527.472 C 1380.439 2493.429 1355.567 2427.018 1355.567 2338.283 C 1355.567 2247.874 1373.951 2193.183 1418.287 2153.001 C 1436.129 2136.817 1439.373 2135.701 1444.78 2143.514 C 1452.349 2154.117 1463.704 2145.746 1463.704 2130.12 C 1463.704 2115.61 1485.331 2110.029 1493.982 2122.307 C 1500.47 2131.236 1501.551 2130.678 1504.255 2117.842 C 1506.958 2108.355 1512.365 2102.774 1524.26 2100.542 C 1545.347 2096.077 1551.835 2101.1 1548.591 2117.284 C 1547.509 2124.539 1548.591 2130.678 1551.294 2130.678 C 1561.026 2130.678 1598.874 2107.797 1598.874 2101.658 C 1598.874 2094.403 1685.924 2098.867 1708.092 2107.797 C 1725.934 2114.494 1744.858 2144.072 1744.858 2164.721 C 1744.858 2173.092 1740.533 2185.37 1734.585 2192.625 C 1724.853 2205.46 1724.853 2205.46 1670.244 2197.647 C 1576.706 2184.812 1522.638 2199.88 1502.092 2244.526 C 1495.604 2257.362 1490.738 2273.546 1490.738 2280.243 C 1490.738 2292.521 1490.738 2292.521 1618.339 2292.521 L 1745.94 2292.521 L 1761.619 2308.705 C 1774.596 2322.657 1777.299 2329.912 1777.299 2352.235 C 1777.299 2388.51 1764.323 2448.225 1751.346 2475.013 C 1734.585 2508.497 1698.9 2541.982 1666.459 2554.26 L 1637.263 2565.421 L 1619.961 2548.679 C 1610.228 2539.75 1599.415 2533.611 1595.089 2534.727 C 1590.764 2536.401 1582.113 2535.285 1575.625 2532.495 C 1564.271 2526.914 1564.271 2526.914 1576.166 2535.843 C 1588.061 2544.772 1592.927 2571.56 1582.654 2571.56 C 1579.95 2571.56 1577.247 2567.096 1577.247 2561.515 C 1577.247 2551.469 1561.567 2533.053 1544.806 2524.123 C 1540.481 2521.333 1542.103 2525.798 1549.131 2533.611 C 1556.701 2542.54 1561.026 2553.144 1559.945 2561.515 C 1558.323 2573.234 1557.782 2573.234 1550.753 2556.492 L 1550.753 2556.492 Z M 1614.013 2465.525 C 1634.018 2452.689 1647.535 2425.344 1647.535 2395.765 L 1647.535 2376.233 L 1569.137 2376.233 C 1491.279 2376.233 1490.738 2376.233 1490.738 2389.068 C 1490.738 2423.111 1511.824 2460.503 1536.696 2471.106 C 1557.242 2480.035 1595.63 2477.245 1614.013 2465.525 Z" id="svg_25" stroke="null" style="fill: url(#gradient-2);"/>
      <path d="M 1950.858 2562.631 C 1914.632 2557.05 1902.737 2552.586 1890.302 2540.308 C 1863.808 2514.078 1864.349 2474.454 1890.842 2459.944 C 1898.952 2455.48 1913.551 2456.038 1945.451 2462.735 C 2002.223 2473.896 2070.348 2473.896 2090.894 2462.735 C 2101.708 2457.154 2108.196 2447.667 2111.981 2433.157 C 2121.173 2400.23 2120.632 2398.556 2092.516 2398.556 C 2044.936 2398.556 1972.485 2387.394 1941.666 2375.675 C 1904.9 2361.164 1870.837 2331.028 1857.861 2300.892 C 1844.344 2270.198 1844.344 2202.67 1857.861 2172.534 C 1870.296 2145.188 1897.871 2117.284 1924.364 2105.564 C 1945.992 2096.635 2011.955 2094.961 2006.548 2103.89 C 2002.223 2111.145 2009.251 2136.259 2015.74 2136.259 C 2018.443 2136.259 2023.85 2128.446 2026.553 2119.516 C 2034.123 2098.867 2041.152 2098.309 2045.477 2118.4 C 2050.343 2138.491 2062.238 2156.908 2073.593 2161.372 C 2081.162 2164.163 2081.162 2163.605 2073.052 2154.117 C 2063.86 2143.514 2060.076 2119.516 2068.186 2119.516 C 2076.296 2119.516 2084.406 2128.446 2086.028 2139.049 C 2088.732 2151.885 2125.498 2179.231 2147.666 2183.695 C 2163.886 2187.602 2163.886 2187.602 2144.963 2176.998 C 2117.928 2162.488 2117.928 2147.42 2145.503 2122.865 C 2175.781 2096.077 2184.973 2097.193 2159.02 2124.539 C 2134.69 2150.211 2135.23 2163.047 2161.183 2176.44 C 2187.136 2189.834 2200.112 2188.718 2179.026 2175.324 C 2159.02 2163.047 2157.939 2159.698 2169.293 2144.072 C 2176.863 2133.468 2176.863 2133.468 2177.403 2145.188 C 2177.403 2159.14 2196.868 2178.115 2215.251 2183.137 L 2228.768 2187.044 L 2216.873 2177.557 C 2209.844 2172.534 2204.438 2162.488 2204.438 2155.233 C 2204.438 2143.514 2206.6 2144.63 2229.309 2167.511 L 2254.18 2193.183 L 2252.018 2325.447 C 2250.395 2457.154 2250.395 2457.154 2235.256 2489.523 C 2226.065 2508.497 2216.333 2521.333 2211.466 2521.333 C 2206.6 2521.333 2204.438 2523.007 2206.06 2525.24 C 2208.222 2526.914 2204.978 2532.495 2198.49 2536.959 C 2188.758 2543.656 2186.054 2543.656 2176.322 2534.169 C 2164.968 2524.124 2164.968 2524.124 2167.671 2538.634 C 2169.834 2552.027 2167.671 2554.26 2150.369 2559.841 C 2118.469 2569.328 2107.656 2567.654 2103.871 2552.027 C 2099.545 2535.285 2090.894 2539.192 2090.894 2558.166 C 2090.894 2569.886 2088.732 2571.56 2069.808 2571.56 C 2054.669 2571.56 2046.559 2568.212 2040.07 2559.282 L 2030.879 2546.447 L 2033.582 2559.282 C 2035.745 2570.444 2033.582 2571.56 2016.28 2571.002 C 2004.926 2570.444 1975.729 2566.537 1950.858 2562.631 L 1950.858 2562.631 Z M 2114.144 2285.266 C 2111.44 2238.387 2088.191 2208.809 2044.396 2198.764 C 2001.141 2188.718 1971.944 2209.367 1971.944 2248.991 C 1971.944 2291.405 2011.414 2315.402 2077.377 2313.17 L 2115.225 2312.054 L 2114.144 2285.266 L 2114.144 2285.266 Z" id="svg_26" stroke="null" style="fill: url(#gradient-1);"/>
      <path d="M 2580.211 2553.702 C 2574.264 2544.214 2566.154 2534.727 2562.369 2533.611 C 2556.962 2531.937 2557.503 2535.285 2563.991 2545.889 C 2579.671 2570.444 2560.747 2564.305 2523.98 2532.495 C 2505.597 2516.868 2490.999 2506.823 2490.999 2510.172 C 2490.999 2514.078 2483.429 2515.194 2470.994 2513.52 L 2450.448 2510.172 L 2467.749 2515.752 C 2477.482 2519.101 2486.673 2524.124 2488.295 2526.914 C 2493.161 2534.727 2484.511 2533.611 2462.343 2524.124 C 2451.529 2519.659 2438.553 2515.752 2433.146 2516.31 C 2425.576 2516.31 2425.036 2517.427 2431.524 2519.659 C 2435.849 2521.333 2443.959 2526.356 2448.826 2531.379 C 2456.395 2538.076 2456.936 2541.982 2452.07 2550.911 L 2446.122 2562.631 L 2441.797 2550.911 C 2436.39 2536.401 2418.547 2523.565 2396.379 2518.543 L 2380.159 2515.194 L 2395.298 2524.124 C 2405.571 2530.262 2409.897 2537.517 2409.897 2548.121 L 2409.897 2563.189 L 2397.461 2548.121 C 2390.973 2540.308 2379.618 2530.262 2372.049 2526.356 C 2359.613 2519.659 2359.072 2519.101 2369.345 2515.194 C 2378.537 2511.846 2378.537 2510.73 2370.967 2510.73 C 2361.776 2510.172 2361.235 2498.452 2361.235 2341.632 C 2361.235 2174.208 2361.235 2173.65 2372.049 2183.695 C 2386.107 2196.531 2387.188 2183.695 2373.671 2168.069 C 2364.479 2157.466 2364.479 2157.466 2377.456 2161.372 C 2385.025 2163.047 2397.461 2169.744 2406.112 2175.882 L 2420.71 2187.044 L 2420.71 2174.766 C 2420.71 2168.069 2412.059 2154.117 2401.246 2144.072 C 2390.973 2133.468 2383.403 2125.097 2385.566 2125.097 C 2392.054 2125.097 2412.6 2137.933 2425.036 2149.095 C 2431.524 2155.233 2436.931 2158.024 2436.931 2155.233 C 2436.931 2145.746 2424.495 2132.352 2404.49 2120.074 C 2377.456 2103.332 2398.542 2105.006 2430.442 2121.749 C 2460.721 2137.375 2473.697 2151.327 2479.644 2173.092 L 2483.429 2189.276 L 2489.377 2171.976 C 2496.946 2149.653 2489.377 2132.91 2464.505 2115.61 C 2442.878 2100.542 2445.582 2099.426 2472.075 2112.261 C 2486.133 2118.958 2492.621 2126.771 2496.406 2141.281 C 2499.109 2152.443 2501.812 2221.645 2501.812 2295.869 C 2501.812 2437.621 2501.812 2437.621 2528.846 2456.596 C 2544.526 2467.199 2576.967 2468.316 2589.944 2458.828 C 2604.001 2447.667 2609.949 2396.323 2609.949 2279.127 C 2609.949 2188.718 2611.03 2171.976 2619.14 2163.047 C 2626.169 2154.675 2626.71 2150.211 2621.844 2139.049 C 2616.978 2128.446 2617.518 2123.981 2624.006 2116.726 C 2635.361 2105.564 2651.581 2114.494 2661.313 2137.933 L 2668.342 2155.792 L 2674.29 2139.607 C 2678.075 2130.678 2679.156 2118.958 2677.534 2113.378 C 2674.831 2104.448 2676.993 2102.774 2689.429 2102.774 C 2710.515 2102.774 2728.899 2117.284 2728.899 2134.026 C 2728.899 2141.281 2731.602 2147.42 2734.305 2147.42 C 2737.55 2147.42 2739.712 2197.647 2739.712 2287.498 L 2739.712 2428.134 L 2759.177 2446.551 C 2781.885 2468.874 2811.623 2472.222 2832.169 2454.922 C 2845.145 2444.318 2845.145 2443.76 2847.849 2286.94 L 2850.552 2129.562 L 2865.691 2116.168 C 2878.667 2105.006 2886.778 2102.774 2915.974 2102.774 C 2947.875 2102.774 2952.741 2104.448 2967.88 2119.516 L 2984.1 2136.259 L 2981.938 2302.566 C 2979.775 2443.76 2978.153 2472.222 2970.043 2494.545 C 2938.142 2583.28 2820.274 2598.348 2741.334 2524.682 L 2719.707 2505.149 L 2704.027 2526.914 C 2695.376 2539.192 2678.075 2554.26 2665.098 2560.957 L 2641.849 2572.676 L 2629.413 2560.957 C 2616.978 2548.679 2616.978 2548.679 2613.733 2559.841 C 2609.408 2577.141 2592.647 2573.793 2580.211 2553.702 L 2580.211 2553.702 Z" id="svg_27" stroke="null" style="fill: url(#gradient-0);"/>
      <path d="M 979.794 2546.447 L 966.277 2533.053 L 966.277 2336.051 C 966.277 2162.488 967.358 2137.375 974.928 2125.655 L 984.119 2112.819 L 997.096 2128.446 C 1006.828 2140.723 1008.45 2141.281 1004.665 2132.352 C 995.473 2113.378 997.636 2102.774 1010.072 2102.774 C 1018.182 2102.774 1020.345 2105.564 1018.182 2111.145 C 1014.397 2122.307 1040.35 2153.001 1061.977 2161.93 C 1087.389 2173.092 1091.174 2170.86 1067.925 2158.024 C 1044.676 2145.746 1041.972 2132.91 1057.652 2113.378 C 1071.169 2096.077 1077.116 2102.216 1066.843 2122.307 C 1057.111 2141.84 1058.733 2144.63 1085.227 2158.582 L 1105.773 2169.744 L 1107.935 2257.362 C 1109.557 2342.748 1110.098 2346.654 1125.778 2375.116 C 1149.027 2419.763 1192.282 2445.992 1259.326 2457.154 C 1283.657 2461.061 1301.499 2482.268 1301.499 2507.939 C 1301.499 2541.424 1289.604 2555.934 1282.035 2531.379 C 1278.791 2519.659 1278.25 2519.659 1271.221 2529.704 C 1266.896 2535.285 1264.733 2544.772 1266.896 2550.353 C 1271.762 2565.979 1245.268 2563.747 1237.699 2548.121 C 1233.373 2538.075 1231.751 2537.517 1231.751 2545.331 C 1231.211 2557.608 1212.287 2557.608 1199.851 2544.772 C 1194.985 2539.75 1186.875 2535.843 1182.009 2536.959 C 1172.276 2538.634 1118.749 2497.336 1113.883 2484.5 C 1107.935 2467.758 1101.447 2477.803 1101.447 2504.033 C 1101.447 2523.007 1098.203 2535.285 1090.093 2545.889 C 1079.82 2559.282 1076.035 2560.399 1036.025 2560.399 C 997.636 2560.399 991.689 2558.724 979.794 2546.447 L 979.794 2546.447 Z" id="svg_28" stroke="null" style="fill: url(#gradient-4);"/>
      <path d="M 3106.294 2237.829 C 3096.021 2235.597 3094.94 2229.458 3101.428 2211.599 C 3104.672 2202.67 3106.294 2203.786 3108.998 2219.971 C 3115.486 2251.223 3126.3 2231.132 3125.218 2190.392 C 3124.678 2158.582 3125.759 2153.559 3144.142 2127.888 L 3163.607 2099.984 L 3173.339 2122.307 C 3184.693 2149.095 3185.775 2169.743 3175.502 2193.741 C 3163.066 2223.877 3131.706 2243.968 3106.294 2237.829 L 3106.294 2237.829 Z" id="svg_29" stroke="null" style="fill: rgb(71, 254, 123);"/>
    </g>
  </g>
</svg>