<svg width="480" height="75" xmlns="http://www.w3.org/2000/svg">

 <g>
  <title>Layer 1</title>
  <text xml:space="preserve" text-anchor="start" font-family="'Calistoga'" font-size="89" id="svg_31" y="70.9981" x="1.48716" stroke-width="0" stroke="#000" fill="#ff7f00">streamXDA</text>
  <text opacity="0.82" xml:space="preserve" text-anchor="start" font-family="'Calistoga'" font-size="89" id="svg_38" y="70.32887" x="-1.8685" stroke-width="0" stroke="#000" fill="#ffff00">stream</text>
  <path id="svg_23" d="m209.25348,225.75094l0.745,-0.34483l0.745,0.34483l-1.49,0z" stroke-width="0" stroke="#000" fill="#ffff00"/>
  <path id="svg_24" d="m208.56726,255.25782l0.745,-1.30375l0.745,1.30375l-1.49,0z" stroke-width="0" stroke="#000" fill="#ffff00"/>
  <path transform="rotate(75.9355 205.221 6.84502)" stroke="#000" id="svg_36" d="m199.13884,21.41367l-12.74483,22.94186l12.58728,7.88162l-11.63431,24.63006l-4.69724,-4.15916l-5.6386,59.54637l22.21024,-46.16361l-5.59016,-4.32956l15.17975,-35.37672l-13.87601,-6.41179l13.39953,-23.90578l-7.64335,-3.58933l8.32475,-15.19337l24.41594,-115.84863l-40.39246,136.47395l6.09947,3.5041l0,-0.00001z" stroke-width="0" fill="#ffff00"/>
  <path id="svg_37" d="m165.52598,38.38002l-0.54249,0.34398l0.53578,0.11817l-0.49522,0.3693l-0.19994,-0.06236l0.14181,0.35596l0.56357,-0.1553l-0.23795,-0.06492l0.64613,-0.53043l-0.59063,-0.09614l0.57035,-0.35844l-0.32534,-0.05382l0.35434,-0.22781l-0.13017,-0.00327l-0.54987,0.31252l0.25963,0.05254l0,0z" stroke-width="0" stroke="#000" fill="#000000"/>
  <path transform="rotate(75.9355 202.537 7.18056)" opacity="0.96" stroke="#000" id="svg_39" d="m197.2961,21.15335l-10.98107,22.00353l10.84533,7.55926l-10.02425,23.62267l-4.04719,-3.98905l-4.85827,57.1109l19.13657,-44.2755l-4.81655,-4.15247l13.07902,-33.92981l-11.9557,-6.14955l11.54517,-22.92802l-6.58559,-3.44253l7.17269,-14.57196l21.03702,-111.11038l-34.80255,130.89212l5.25536,3.36078l0,-0.00001z" stroke-width="0" fill="#ff7f00"/>
 </g>
</svg>